<?xml version="1.0" encoding="UTF-8"?>
<svg version="1.1" xmlns="http://www.w3.org/2000/svg" width="512" height="512">
<path d="M0 0 C1.83893829 -0.00935994 1.83893829 -0.00935994 3.71502686 -0.01890898 C7.11067264 -0.03209356 10.50543213 -0.02736248 13.90102386 -0.0149641 C17.56571995 -0.0059106 21.23033881 -0.0198848 24.89501953 -0.03088379 C32.07118816 -0.04867046 39.24718945 -0.04482842 46.42336464 -0.03323323 C52.25556435 -0.02419974 58.08771717 -0.02297453 63.91992188 -0.02732849 C64.74998497 -0.02794142 65.58004807 -0.02855436 66.43526459 -0.02918586 C68.12152101 -0.03046476 69.80777742 -0.03176162 71.49403381 -0.03307623 C87.30614256 -0.04448245 103.11815854 -0.03136766 118.93025208 -0.00987476 C132.49781867 0.00799627 146.06524837 0.00489218 159.6328125 -0.0135498 C175.38832859 -0.03495577 191.14376339 -0.04338381 206.89929199 -0.03110075 C208.57934569 -0.02982655 210.2593994 -0.02856907 211.93945312 -0.02732849 C212.76607201 -0.02671139 213.59269089 -0.02609429 214.44435883 -0.02545848 C220.26956636 -0.02200476 226.09472233 -0.02783441 231.91992188 -0.0372467 C239.01891224 -0.04846503 246.11772569 -0.04543022 253.21669579 -0.02412373 C256.83875643 -0.01361096 260.4605221 -0.00949506 264.08258057 -0.02272034 C268.00834553 -0.03683776 271.93362745 -0.01998152 275.859375 0 C277.00508972 -0.00892289 278.15080444 -0.01784577 279.33123779 -0.02703905 C287.22425514 0.05112931 290.63668909 1.25335448 296.2734375 6.82434082 C299.41412231 11.91313909 298.59954369 17.7431116 297.9296875 23.50793457 C296.36353575 28.09751295 293.1545498 30.35864426 288.9296875 32.50793457 C286.25073242 32.84851074 286.25073242 32.84851074 283.41015625 32.80090332 C282.38857422 32.79123535 281.36699219 32.78156738 280.31445312 32.77160645 C279.25935547 32.74646973 278.20425781 32.72133301 277.1171875 32.69543457 C275.50553711 32.67513184 275.50553711 32.67513184 273.86132812 32.65441895 C271.21693295 32.61916034 268.57357002 32.56987823 265.9296875 32.50793457 C265.93120638 33.13046439 265.93272526 33.7529942 265.93429017 34.39438856 C266.02383433 71.30398002 266.09244982 108.2135554 266.13394882 145.12323328 C266.13895155 149.55664301 266.14412885 153.99005252 266.14941406 158.42346191 C266.1504633 159.30606078 266.15151255 160.18865965 266.15259358 161.09800394 C266.16999104 175.382306 266.2015251 189.66654356 266.23829868 203.95080738 C266.27572645 218.61163253 266.29792724 233.27242393 266.30604148 247.93329489 C266.31152545 256.97728288 266.32883584 266.02108854 266.36135337 275.0650204 C266.38252392 281.26976012 266.3888818 287.4744058 266.38369301 293.679179 C266.38113516 297.25716365 266.3850107 300.83483005 266.4065094 304.41275787 C266.42968319 308.29798337 266.42161414 312.18279779 266.41070557 316.06808472 C266.42235693 317.190677 266.4340083 318.31326928 266.44601274 319.46987951 C266.38130976 328.00841381 264.52510885 334.65187999 259.7421875 341.75793457 C251.92962743 349.39688219 244.34020822 352.81859543 233.37223816 352.77536011 C232.52408281 352.77989122 231.67592746 352.78442233 230.80207044 352.78909075 C227.96719365 352.80172548 225.13250921 352.80011498 222.29760742 352.79846191 C220.26208754 352.80444774 218.22656993 352.81125341 216.1910553 352.81881714 C210.66617696 352.83647883 205.14136058 352.8411726 199.61645675 352.84244871 C196.16330239 352.84387077 192.71016377 352.84814143 189.25701332 352.85344315 C177.2060814 352.871944 165.1551937 352.88011369 153.10424805 352.87854004 C141.87753378 352.87733864 130.65101177 352.89844068 119.42434615 352.93002737 C109.77999379 352.95619354 100.1357042 352.96690719 90.49131662 352.96562922 C84.73368178 352.96511969 78.97621782 352.97079821 73.21861839 352.99198532 C67.80210383 353.01137329 62.38592304 353.01148815 56.96939659 352.99695206 C54.98488374 352.99486357 53.00034998 352.9995672 51.01587296 353.01167297 C48.29955495 353.02716593 45.58438206 353.01779079 42.86808777 353.00241089 C42.08907881 353.01269801 41.31006986 353.02298514 40.50745457 353.033584 C32.18047534 352.92991355 23.98793535 349.24732727 17.9296875 343.50793457 C10.95995457 334.83591664 9.63313038 327.461503 9.68917847 316.54910278 C9.68746962 315.33524474 9.68576077 314.12138669 9.68400013 312.87074506 C9.68127833 309.50934805 9.68751785 306.14818462 9.69755626 302.78681588 C9.70620137 299.15907569 9.70326984 295.53134257 9.70175171 291.90359497 C9.70070353 285.62089966 9.70697313 279.33824592 9.71822739 273.05556107 C9.7344885 263.97188408 9.73969102 254.88822718 9.74220337 245.80453722 C9.74657951 231.06649812 9.75988643 216.32848117 9.77880859 201.5904541 C9.79716948 187.27470002 9.81132497 172.95895196 9.81982422 158.64318848 C9.82034967 157.76061413 9.82087511 156.87803978 9.82141648 155.96872075 C9.82402658 151.5410595 9.82655399 147.11339821 9.82904029 142.68573689 C9.84977027 105.95978715 9.88499361 69.23386258 9.9296875 32.50793457 C9.26437012 32.52888184 8.59905273 32.5498291 7.91357422 32.57141113 C4.87743448 32.65494066 1.84153707 32.7067106 -1.1953125 32.75793457 C-2.24203125 32.7914502 -3.28875 32.82496582 -4.3671875 32.85949707 C-10.61453561 32.93857743 -14.34810987 32.74825005 -19.0703125 28.50793457 C-23.33090244 23.09437315 -22.80809045 17.08990868 -22.0703125 10.50793457 C-17.44040415 0.35775088 -10.02287634 -0.07805869 0 0 Z M78.31932163 73.03522968 C72.18815344 80.75013173 73.10771767 89.63230803 73.20092773 98.96765137 C73.19770554 100.84099931 73.19188394 102.7143443 73.18367004 104.587677 C73.16917734 109.65586499 73.19202238 114.72325566 73.22252917 119.79134727 C73.24895154 125.10163648 73.24359683 130.41190271 73.2424469 135.72224426 C73.24525276 144.6353992 73.27125257 153.54824693 73.31225586 162.46130371 C73.35947166 172.76280583 73.37524844 183.06397203 73.3730492 193.36557454 C73.37102238 204.34249309 73.39184356 215.31928236 73.41938901 226.29616189 C73.42577929 229.45618637 73.42791202 232.61618997 73.42910576 235.77622032 C73.43212116 240.74135611 73.45045217 245.70621037 73.48060417 250.6712532 C73.48935919 252.49252536 73.49305931 254.31382993 73.49132156 256.1351223 C73.48984656 258.62233684 73.50684216 261.10876602 73.52854919 263.59587097 C73.52390339 264.31542597 73.51925758 265.03498097 73.51447099 265.77634066 C73.5909091 271.08426515 74.79765181 275.22399812 78.46484375 279.15246582 C84.21515223 283.54976054 87.76209684 284.12035529 94.9296875 283.50793457 C99.87740328 281.52884826 103.55708732 277.25313493 105.9296875 272.50793457 C106.033862 270.00481909 106.07748528 267.52913004 106.07685852 265.02546692 C106.08053521 264.24465498 106.0842119 263.46384303 106.088 262.65937012 C106.09906145 260.02856279 106.10288485 257.39779491 106.10668945 254.76696777 C106.1129523 252.88642755 106.11959894 251.00588857 106.12660217 249.12535095 C106.14402979 244.00533227 106.15456898 238.88532293 106.1628077 233.76528192 C106.16795468 230.56745443 106.17403059 227.36962986 106.18031883 224.17180443 C106.1993768 214.16957662 106.21360601 204.16735623 106.2219308 194.16511375 C106.23170301 182.61390374 106.25801962 171.06288537 106.29843169 159.51174289 C106.32858271 150.58767384 106.34339876 141.66365975 106.34671181 132.73954076 C106.34906368 127.40778466 106.35804174 122.07623315 106.38317299 116.74453163 C106.40644055 111.72698082 106.41069217 106.70976948 106.40041161 101.69217873 C106.3999158 99.85195284 106.40624948 98.01171032 106.41996765 96.17153549 C106.43767089 93.65572409 106.43058864 91.14113298 106.41743469 88.62532043 C106.42840394 87.90001249 106.43937318 87.17470455 106.45067483 86.42741758 C106.38168465 80.94804494 104.93764578 77.92822402 101.9296875 73.50793457 C94.98624394 67.37186817 85.34922371 66.36796524 78.31932163 73.03522968 Z M174.31932163 73.03522968 C168.18815344 80.75013173 169.10771767 89.63230803 169.20092773 98.96765137 C169.19770554 100.84099931 169.19188394 102.7143443 169.18367004 104.587677 C169.16917734 109.65586499 169.19202238 114.72325566 169.22252917 119.79134727 C169.24895154 125.10163648 169.24359683 130.41190271 169.2424469 135.72224426 C169.24525276 144.6353992 169.27125257 153.54824693 169.31225586 162.46130371 C169.35947166 172.76280583 169.37524844 183.06397203 169.3730492 193.36557454 C169.37102238 204.34249309 169.39184356 215.31928236 169.41938901 226.29616189 C169.42577929 229.45618637 169.42791202 232.61618997 169.42910576 235.77622032 C169.43212116 240.74135611 169.45045217 245.70621037 169.48060417 250.6712532 C169.48935919 252.49252536 169.49305931 254.31382993 169.49132156 256.1351223 C169.48984656 258.62233684 169.50684216 261.10876602 169.52854919 263.59587097 C169.52390339 264.31542597 169.51925758 265.03498097 169.51447099 265.77634066 C169.5909091 271.08426515 170.79765181 275.22399812 174.46484375 279.15246582 C180.21515223 283.54976054 183.76209684 284.12035529 190.9296875 283.50793457 C195.87740328 281.52884826 199.55708732 277.25313493 201.9296875 272.50793457 C202.033862 270.00481909 202.07748528 267.52913004 202.07685852 265.02546692 C202.08053521 264.24465498 202.0842119 263.46384303 202.088 262.65937012 C202.09906145 260.02856279 202.10288485 257.39779491 202.10668945 254.76696777 C202.1129523 252.88642755 202.11959894 251.00588857 202.12660217 249.12535095 C202.14402979 244.00533227 202.15456898 238.88532293 202.1628077 233.76528192 C202.16795468 230.56745443 202.17403059 227.36962986 202.18031883 224.17180443 C202.1993768 214.16957662 202.21360601 204.16735623 202.2219308 194.16511375 C202.23170301 182.61390374 202.25801962 171.06288537 202.29843169 159.51174289 C202.32858271 150.58767384 202.34339876 141.66365975 202.34671181 132.73954076 C202.34906368 127.40778466 202.35804174 122.07623315 202.38317299 116.74453163 C202.40644055 111.72698082 202.41069217 106.70976948 202.40041161 101.69217873 C202.3999158 99.85195284 202.40624948 98.01171032 202.41996765 96.17153549 C202.43767089 93.65572409 202.43058864 91.14113298 202.41743469 88.62532043 C202.42840394 87.90001249 202.43937318 87.17470455 202.45067483 86.42741758 C202.38168465 80.94804494 200.93764578 77.92822402 197.9296875 73.50793457 C190.98624394 67.37186817 181.34922371 66.36796524 174.31932163 73.03522968 Z " fill="#000000" transform="translate(118.0703125,127.4920654296875)"/>
<path d="M0 0 C1.53307549 -0.01292336 1.53307549 -0.01292336 3.09712219 -0.02610779 C6.46222548 -0.04873643 9.82649387 -0.04203409 13.19165039 -0.03295898 C15.5390294 -0.03819601 17.88640631 -0.04447278 20.23377991 -0.05174255 C25.14879268 -0.06214116 30.06351584 -0.05759289 34.97851562 -0.04296875 C41.26781216 -0.0257846 47.55619479 -0.04927562 53.84538937 -0.08445835 C58.69167603 -0.10645017 63.53774464 -0.10498639 68.38406563 -0.09669304 C70.70243901 -0.09587446 73.02082855 -0.10271988 75.3391552 -0.11746407 C78.58474281 -0.13494144 81.82869597 -0.12033904 85.07421875 -0.09765625 C86.50134689 -0.11519455 86.50134689 -0.11519455 87.95730591 -0.13308716 C94.32158608 -0.04288216 98.80120032 1.21770982 103.60180664 5.53344727 C107.49587977 10.68984272 106.95272658 16.22363092 106.78930664 22.40844727 C106.77577148 23.38297852 106.76223633 24.35750977 106.74829102 25.36157227 C106.71312626 27.7527759 106.66391334 30.14281702 106.60180664 32.53344727 C107.66589752 32.52456482 108.7299884 32.51568237 109.82632446 32.50653076 C119.86080609 32.42539778 129.89522106 32.36545918 139.92995644 32.32619858 C145.08877879 32.3053356 150.24733606 32.27704129 155.40600586 32.23168945 C160.38566056 32.18818602 165.3650605 32.16430045 170.34489059 32.15393829 C172.2434935 32.14655502 174.14208266 32.13213712 176.04057693 32.11052704 C178.70273067 32.08143318 181.36383557 32.07749374 184.02612305 32.0793457 C184.8087149 32.0649646 185.59130676 32.0505835 186.39761353 32.0357666 C192.79930575 32.08386386 196.36987593 34.32755575 200.94555664 38.84985352 C204.08624145 43.93865178 203.27166283 49.76862429 202.60180664 55.53344727 C201.03380154 60.12845685 197.82163302 62.36793323 193.60180664 64.53344727 C191.05128533 64.91064543 191.05128533 64.91064543 188.28688145 64.913764 C186.69952068 64.92642391 186.69952068 64.92642391 185.08009201 64.93933958 C183.92368255 64.93332953 182.76727309 64.92731949 181.57582092 64.92112732 C180.34254938 64.92651286 179.10927784 64.93189839 177.83863443 64.93744713 C174.41807092 64.94928311 170.99799428 64.9476532 167.57744992 64.94028032 C163.88752226 64.93555414 160.19764709 64.9480536 156.50773621 64.95829773 C149.27999111 64.97550184 142.05233289 64.97632242 134.82457263 64.97108483 C128.95040128 64.96704493 123.07625562 64.96848454 117.20208549 64.97383308 C115.94846153 64.97495572 115.94846153 64.97495572 114.66951184 64.97610103 C112.97173989 64.97763249 111.27396794 64.97917084 109.57619601 64.980716 C93.65156418 64.99444684 77.72698146 64.98899922 61.80235075 64.97753078 C47.23112254 64.96759754 32.66002129 64.9805396 18.08881266 65.00446498 C3.129508 65.02884267 -11.82973748 65.03846714 -26.78906161 65.03181225 C-35.18856884 65.0283171 -43.5879784 65.03057159 -51.98747063 65.04806328 C-59.13771301 65.06276864 -66.28778897 65.06344259 -73.43802803 65.04599237 C-77.08641543 65.03746619 -80.73450529 65.03537189 -84.38287735 65.05064392 C-88.33714607 65.06699158 -92.29095322 65.05237537 -96.245224 65.03465271 C-97.39940274 65.04425772 -98.55358148 65.05386272 -99.74273533 65.06375879 C-105.93157517 65.0065036 -109.71837558 64.73550425 -114.39819336 60.53344727 C-118.6587833 55.11988585 -118.13597131 49.11542137 -117.39819336 42.53344727 C-115.12044249 37.53991651 -112.15522388 35.16791385 -107.39819336 32.53344727 C-104.52828051 31.99563861 -101.73528444 32.02581983 -98.82250977 32.0793457 C-97.98282654 32.0787616 -97.14314331 32.07817749 -96.27801514 32.07757568 C-93.51816656 32.08034988 -90.75941443 32.11140976 -87.99975586 32.14282227 C-86.08019602 32.15028703 -84.16062854 32.15597885 -82.24105835 32.15997314 C-77.20044744 32.17521088 -72.16030104 32.21447673 -67.11987305 32.25878906 C-61.97182498 32.29978188 -56.82370151 32.31799273 -51.67553711 32.33813477 C-41.58288564 32.38097273 -31.4905782 32.44920158 -21.39819336 32.53344727 C-21.42961426 31.63420532 -21.42961426 31.63420532 -21.46166992 30.71679688 C-21.5454461 27.96835485 -21.5970448 25.22018235 -21.64819336 22.47094727 C-21.68170898 21.52799805 -21.71522461 20.58504883 -21.74975586 19.61352539 C-21.83726509 13.33473836 -21.33908196 9.52312074 -17.39819336 4.53344727 C-11.76024613 0.16117922 -6.97808628 -0.04776179 0 0 Z " fill="#000000" transform="translate(213.398193359375,31.466552734375)"/>
</svg>
