<?xml version="1.0" encoding="UTF-8"?>
<svg version="1.1" xmlns="http://www.w3.org/2000/svg" width="200" height="200">
<path d="M0 0 C7.41557128 6.28845409 7.41557128 6.28845409 10.36499023 9.25146484 C10.92504257 9.81159271 11.48509491 10.37172058 12.06211853 10.94882202 C12.63845535 11.53032013 13.21479218 12.11181824 13.80859375 12.7109375 C14.42017838 13.32393707 15.031763 13.93693665 15.66188049 14.56851196 C17.58947559 16.50164564 19.51353928 18.43824987 21.4375 20.375 C22.75432404 21.69684699 24.07137926 23.01846372 25.38867188 24.33984375 C28.59512373 27.55724299 31.79841629 30.77775681 35 34 C30.80470818 39.00619949 26.43128848 43.70815221 21.80126953 48.31225586 C20.76120003 49.3525444 20.76120003 49.3525444 19.70011902 50.41384888 C17.43004829 52.6832284 15.1564667 54.94905495 12.8828125 57.21484375 C11.29933161 58.79645764 9.71607279 60.37829389 8.13302612 61.96034241 C3.98259908 66.10696645 -0.1708232 70.25057751 -4.32489014 74.39355469 C-8.5699796 78.62838222 -12.8122105 82.8660712 -17.0546875 87.10351562 C-25.36700662 95.40513655 -33.68249489 103.70357522 -42 112 C-49.41557128 105.71154591 -49.41557128 105.71154591 -52.36499023 102.74853516 C-52.92504257 102.18840729 -53.48509491 101.62827942 -54.06211853 101.05117798 C-54.63845535 100.46967987 -55.21479218 99.88818176 -55.80859375 99.2890625 C-56.42017838 98.67606293 -57.031763 98.06306335 -57.66188049 97.43148804 C-59.58947559 95.49835436 -61.51353928 93.56175013 -63.4375 91.625 C-64.75432404 90.30315301 -66.07137926 88.98153628 -67.38867188 87.66015625 C-70.59512373 84.44275701 -73.79841629 81.22224319 -77 78 C-72.80470818 72.99380051 -68.43128848 68.29184779 -63.80126953 63.68774414 C-62.76120003 62.6474556 -62.76120003 62.6474556 -61.70011902 61.58615112 C-59.43004829 59.3167716 -57.1564667 57.05094505 -54.8828125 54.78515625 C-53.29933161 53.20354236 -51.71607279 51.62170611 -50.13302612 50.03965759 C-45.98259908 45.89303355 -41.8291768 41.74942249 -37.67510986 37.60644531 C-33.4300204 33.37161778 -29.1877895 29.1339288 -24.9453125 24.89648438 C-16.63299338 16.59486345 -8.31750511 8.29642478 0 0 Z " fill="#000000" transform="translate(117,48)"/>
<path d="M0 0 C2.95265112 1.32994383 5.02350216 2.77779316 7.29980469 5.07275391 C7.92014587 5.69324615 8.54048706 6.3137384 9.17962646 6.95303345 C9.83706848 7.62079803 10.4945105 8.28856262 11.171875 8.9765625 C11.8542926 9.66181 12.53671021 10.3470575 13.23980713 11.05307007 C15.41461598 13.23905845 17.58236072 15.43190429 19.75 17.625 C21.2247999 19.10983255 22.70005506 20.59421306 24.17578125 22.078125 C27.78915448 25.7135291 31.39620853 29.35509824 35 33 C33.51136264 36.11966041 31.99711308 38.24012613 29.5234375 40.671875 C28.853125 41.33574219 28.1828125 41.99960938 27.4921875 42.68359375 C26.79351562 43.36550781 26.09484375 44.04742187 25.375 44.75 C24.66859375 45.44738281 23.9621875 46.14476562 23.234375 46.86328125 C21.49400848 48.5801293 19.74829728 50.29123998 18 52 C13.16701194 47.97251947 8.61889996 43.75620587 4.19140625 39.2890625 C3.57982162 38.67606293 2.968237 38.06306335 2.33811951 37.43148804 C0.41052441 35.49835436 -1.51353928 33.56175013 -3.4375 31.625 C-4.75432404 30.30315301 -6.07137926 28.98153628 -7.38867188 27.66015625 C-10.59512373 24.44275701 -13.79841629 21.22224319 -17 18 C-16.0636169 16.89661782 -15.12563812 15.79458971 -14.18701172 14.69311523 C-13.66485077 14.07927475 -13.14268982 13.46543427 -12.60470581 12.83299255 C-10.23001076 10.12047147 -7.69567399 7.58776807 -5.125 5.0625 C-4.62742188 4.56943359 -4.12984375 4.07636719 -3.6171875 3.56835938 C-2.41379715 2.37654008 -1.20724635 1.18791322 0 0 Z " fill="#000000" transform="translate(139,26)"/>
<path d="M0 0 C2.89015081 1.31004224 4.96442174 2.71244475 7.20800781 4.94921875 C7.80832825 5.54323486 8.40864868 6.13725098 9.02716064 6.74926758 C9.66272888 7.38888428 10.29829712 8.02850098 10.953125 8.6875 C11.61334656 9.34580811 12.27356812 10.00411621 12.95379639 10.68237305 C14.34470501 12.07192292 15.73310008 13.46399274 17.11914062 14.85839844 C19.24909741 16.99909286 21.38954496 19.1288791 23.53125 21.2578125 C24.88085039 22.60873387 26.22983059 23.96027518 27.578125 25.3125 C28.22179016 25.9521167 28.86545532 26.5917334 29.52862549 27.25073242 C34 31.77007089 34 31.77007089 34 34 C30.03501173 34.96137229 26.06975047 35.92161002 22.10424805 36.88085938 C20.759123 37.20640441 19.41406909 37.5322435 18.0690918 37.85839844 C-4.36843616 43.29881057 -4.36843616 43.29881057 -9 43 C-8.37840767 35.24736227 -6.73496917 27.80044044 -4.98876953 20.24121094 C-4.49650373 18.10986229 -4.01132813 15.97699295 -3.52734375 13.84375 C-1.16815784 3.50447351 -1.16815784 3.50447351 0 0 Z " fill="#000000" transform="translate(35,131)"/>
</svg>
