<svg width="10" height="10" viewBox="0 0 10 10" fill="none" xmlns="http://www.w3.org/2000/svg">
<circle cx="5" cy="5" r="5" fill="#018E42"/>
<path d="M6.72155 3.00298C6.64076 2.95794 6.55191 2.9293 6.46006 2.9187C6.36822 2.90809 6.27519 2.91573 6.18629 2.94117C6.09739 2.96661 6.01438 3.00935 5.94198 3.06696C5.86959 3.12457 5.80924 3.19591 5.76439 3.2769L4.4578 5.63251L3.71002 4.88338C3.6451 4.81604 3.56744 4.76232 3.48157 4.72537C3.39571 4.68842 3.30336 4.66897 3.20991 4.66816C3.11646 4.66734 3.02378 4.68518 2.93729 4.72063C2.8508 4.75609 2.77222 4.80844 2.70614 4.87464C2.64006 4.94084 2.5878 5.01956 2.55241 5.10621C2.51702 5.19286 2.49921 5.2857 2.50003 5.37932C2.50084 5.47294 2.52025 5.56546 2.55714 5.65148C2.59402 5.7375 2.64764 5.8153 2.71486 5.88034L4.12244 7.29046C4.25546 7.42407 4.43493 7.49739 4.62002 7.49739L4.7175 7.49034C4.82537 7.47523 4.92827 7.43523 5.0181 7.37351C5.10792 7.31178 5.18222 7.23002 5.23514 7.13464L6.99462 3.96186C7.03954 3.88094 7.06811 3.79194 7.0787 3.69996C7.08929 3.60798 7.08169 3.5148 7.05633 3.42576C7.03097 3.33672 6.98835 3.25355 6.93091 3.18101C6.87347 3.10847 6.80233 3.04797 6.72155 3.00298Z" fill="white"/>
</svg>
