<svg width="10" height="8" viewBox="0 0 10 8" fill="none" xmlns="http://www.w3.org/2000/svg">
    <path
        d="M1 8C0.725 8 0.489667 7.90217 0.294 7.7065C0.0983334 7.51083 0.000333333 7.27533 0 7V1C0 0.725 0.098 0.489667 0.294 0.294C0.49 0.0983332 0.725333 0.000333333 1 0H9C9.275 0 9.5105 0.0979999 9.7065 0.294C9.9025 0.49 10.0003 0.725333 10 1V7C10 7.275 9.90217 7.5105 9.7065 7.7065C9.51083 7.9025 9.27533 8.00033 9 8H1ZM5 4.4125C5.04167 4.4125 5.0855 4.40617 5.1315 4.3935C5.1775 4.38083 5.22117 4.36217 5.2625 4.3375L8.8 2.125C8.86667 2.08333 8.91667 2.03133 8.95 1.969C8.98333 1.90667 9 1.83783 9 1.7625C9 1.59583 8.92917 1.47083 8.7875 1.3875C8.64583 1.30417 8.5 1.30833 8.35 1.4L5 3.5L1.65 1.4C1.5 1.30833 1.35417 1.30633 1.2125 1.394C1.07083 1.48167 1 1.6045 1 1.7625C1 1.84583 1.01667 1.91883 1.05 1.9815C1.08333 2.04417 1.13333 2.092 1.2 2.125L4.7375 4.3375C4.77917 4.3625 4.823 4.38133 4.869 4.394C4.915 4.40667 4.95867 4.41283 5 4.4125Z"
        fill="#777777" />
</svg>
