<svg width="132" height="120" viewBox="0 0 132 120" fill="none" xmlns="http://www.w3.org/2000/svg">
<path fill-rule="evenodd" clip-rule="evenodd" d="M21.9706 51.8498C41.1808 17.7811 50.7859 0.75 66 0.75C81.2075 0.75 90.8191 17.7811 110.029 51.8498L112.426 56.0895C128.39 84.3978 136.376 98.552 129.16 108.901C121.945 119.25 104.091 119.25 68.3963 119.25H63.6036C27.9088 119.25 10.0548 119.25 2.83946 108.901C-4.37588 98.552 3.60971 84.3978 19.5743 56.0895L21.9706 51.8498ZM66 28.7292C67.3095 28.7292 68.5653 29.2494 69.4913 30.1753C70.4173 31.1013 70.9375 32.3572 70.9375 33.6667V66.5833C70.9375 67.8928 70.4173 69.1487 69.4913 70.0747C68.5653 71.0006 67.3095 71.5208 66 71.5208C64.6904 71.5208 63.4346 71.0006 62.5086 70.0747C61.5827 69.1487 61.0625 67.8928 61.0625 66.5833V33.6667C61.0625 32.3572 61.5827 31.1013 62.5086 30.1753C63.4346 29.2494 64.6904 28.7292 66 28.7292ZM66 92.9167C67.746 92.9167 69.4205 92.2231 70.6551 90.9885C71.8897 89.7538 72.5833 88.0793 72.5833 86.3333C72.5833 84.5873 71.8897 82.9128 70.6551 81.6782C69.4205 80.4436 67.746 79.75 66 79.75C64.2539 79.75 62.5795 80.4436 61.3448 81.6782C60.1102 82.9128 59.4166 84.5873 59.4166 86.3333C59.4166 88.0793 60.1102 89.7538 61.3448 90.9885C62.5795 92.2231 64.2539 92.9167 66 92.9167Z" fill="#FF3030"/>
</svg>
