<svg width="94" height="51" viewBox="0 0 94 51" fill="none" xmlns="http://www.w3.org/2000/svg">
<path d="M19.98 0.48C20.548 0.48 21.052 0.592 21.42 0.896C21.788 1.2 21.996 1.624 21.996 2.216C21.996 2.808 21.788 3.232 21.42 3.544C21.052 3.848 20.548 3.96 19.98 3.96H19.3V6H18.004V0.48H19.98ZM19.796 2.96C20.076 2.96 20.26 2.92 20.42 2.808C20.572 2.696 20.684 2.496 20.684 2.216C20.684 1.936 20.572 1.744 20.42 1.632C20.26 1.52 20.076 1.48 19.796 1.48H19.292V2.96H19.796ZM26.2779 6.096C24.6379 6.096 23.3499 5.032 23.3499 3.248C23.3499 1.464 24.6379 0.392 26.2779 0.392C27.9179 0.392 29.2059 1.464 29.2059 3.248C29.2059 5.032 27.9179 6.096 26.2779 6.096ZM26.2779 4.944C27.1979 4.944 27.8939 4.272 27.8939 3.216C27.8939 2.168 27.1979 1.496 26.2779 1.496C25.3579 1.496 24.6619 2.16 24.6619 3.216C24.6619 4.272 25.3579 4.944 26.2779 4.944ZM30.2904 0.48H31.6424L32.6024 4.2L33.5944 0.48H34.8904L35.8904 4.2L36.8424 0.48H38.1944L36.5944 6H35.2904L34.2424 2.216L33.1944 6H31.8904L30.2904 0.48ZM39.7177 0.48H43.2937V1.512H41.0057V2.64H43.1657V3.672H41.0057V4.952H43.3657V6H39.7177V0.48ZM47.1871 0.48C47.8031 0.48 48.2831 0.608 48.6431 0.872C49.0111 1.144 49.2511 1.584 49.2511 2.136C49.2511 2.672 49.0751 3.04 48.8431 3.296C48.6271 3.528 48.3631 3.664 48.1711 3.72L49.5711 6H48.0671L46.9071 3.888H46.4991V6H45.2031V0.48H47.1871ZM47.0031 2.896C47.2991 2.896 47.5071 2.864 47.6671 2.744C47.8351 2.624 47.9471 2.472 47.9471 2.184C47.9471 1.904 47.8351 1.744 47.6671 1.624C47.5071 1.504 47.2991 1.48 47.0031 1.48H46.4911V2.896H47.0031ZM51.0399 0.48H54.6159V1.512H52.3279V2.64H54.4879V3.672H52.3279V4.952H54.6879V6H51.0399V0.48ZM58.3972 0.48C59.3572 0.48 60.0692 0.752 60.5252 1.144C60.9892 1.528 61.4212 2.168 61.4212 3.24C61.4212 4.312 60.9892 4.952 60.5252 5.344C60.0692 5.728 59.3572 6 58.3972 6H56.5252V0.48H58.3972ZM58.4692 4.904C59.0052 4.904 59.3892 4.728 59.6212 4.504C59.8532 4.288 60.1092 3.92 60.1092 3.24C60.1092 2.56 59.8532 2.168 59.6212 1.944C59.3892 1.728 59.0052 1.552 58.4692 1.552H57.8132V4.904H58.4692ZM67.6884 0.48C68.1924 0.48 68.6804 0.52 69.0564 0.72C69.4164 0.904 69.7524 1.264 69.7524 1.856C69.7524 2.48 69.3604 2.944 68.9444 3.088V3.104C69.6324 3.272 70.0884 3.736 70.0884 4.48C70.0884 5.024 69.8324 5.384 69.4804 5.64C69.1284 5.896 68.6324 6 68.0644 6H65.8084V0.48H67.6884ZM67.6004 2.712C67.8884 2.712 68.0564 2.696 68.2244 2.584C68.3684 2.48 68.4804 2.336 68.4804 2.064C68.4804 1.8 68.3684 1.648 68.2084 1.552C68.0564 1.456 67.9124 1.44 67.6324 1.44H67.0964V2.712H67.6004ZM67.8084 5.016C68.0884 5.016 68.3044 5 68.4964 4.864C68.6884 4.736 68.7764 4.552 68.7764 4.312C68.7764 4.064 68.6884 3.896 68.5044 3.776C68.3044 3.624 68.0884 3.608 67.8084 3.608H67.0964V5.016H67.8084ZM72.9186 3.768L70.9986 0.48H72.4386L73.5666 2.68L74.6946 0.48H76.1346L74.2146 3.768V6H72.9186V3.768Z" fill="#737373"/>
<g opacity="0.37" clip-path="url(#clip0_1_95)">
<g clip-path="url(#clip1_1_95)">
<mask id="mask0_1_95" style="mask-type:luminance" maskUnits="userSpaceOnUse" x="0" y="13" width="94" height="38">
<path d="M0 13H94V50.6H0V13Z" fill="white"/>
</mask>
<g mask="url(#mask0_1_95)">
<path fill-rule="evenodd" clip-rule="evenodd" d="M5.00706 18.989H11.5557L16.136 18.9853V14.5811H11.3984C7.80764 14.5811 5.63561 16.0274 5.00769 18.989H5.00706Z" fill="black"/>
<path fill-rule="evenodd" clip-rule="evenodd" d="M2.58061 18.989C0.7896 18.989 0 19.7253 0 21.559V40.0532H4.80716V20.9837C4.80716 20.2505 4.87609 19.5912 5.00769 18.9846H5.00017L2.58061 18.989ZM82.1905 13.829C75.3072 13.829 70.3302 19.4339 70.3302 26.9909C70.3302 34.4483 75.5033 40.0532 82.1905 40.0532C88.8776 40.0532 94.0006 34.5485 94.0006 26.9909C94.0006 19.4333 89.0738 13.829 82.1905 13.829ZM82.1905 35.9986C78.0689 35.9986 75.257 33.1442 75.257 27.0373C75.257 20.9336 78.119 17.8804 82.1905 17.8804C86.2619 17.8804 89.0738 20.9336 89.0738 27.0373C89.0738 33.0947 86.312 35.9986 82.1905 35.9986ZM29.1519 13.829C22.2686 13.829 17.2916 19.4339 17.2916 26.9909C17.2916 34.4483 22.4647 40.0532 29.1519 40.0532C35.8384 40.0532 40.9621 34.5485 40.9621 26.9909C40.9621 19.4333 36.0352 13.829 29.1519 13.829ZM29.1519 35.9986C25.0303 35.9986 22.2185 33.1442 22.2185 27.0373C22.2185 20.9336 25.0805 17.8804 29.1519 17.8804C33.2234 17.8804 36.0352 20.9336 36.0352 27.0373C36.0352 33.0947 33.2697 35.9986 29.1519 35.9986ZM62.834 14.5616V18.5472C61.5706 16.3996 58.9894 13.829 54.4053 13.829C48.0848 13.829 43.6586 19.0774 43.6586 27.0987C43.6586 35.1238 48.1343 40.0532 54.4059 40.0532C58.8741 40.0532 61.6126 37.9626 62.8258 35.8645V43.3676C62.8258 44.1008 62.7569 44.7601 62.6253 45.3667H62.6335L65.0486 45.3623C66.8396 45.3623 67.6292 44.6259 67.6292 42.7923V14.5616H62.834ZM62.8296 29.3234C62.8296 33.7163 59.4249 36.0713 55.7771 36.0713C51.7746 36.0713 48.7703 33.6587 48.7703 27.1025C48.7703 20.5463 51.7708 18.0296 55.7765 18.0296C59.7834 18.0296 62.9067 20.619 62.9067 25.4951L62.8296 29.3234Z" fill="black"/>
<path fill-rule="evenodd" clip-rule="evenodd" d="M56.0729 45.3629L48.7659 45.3667V49.7709H56.2308C59.8166 49.7709 61.9899 48.3208 62.6209 45.3629H56.0729Z" fill="black"/>
</g>
</g>
</g>
<defs>
<clipPath id="clip0_1_95">
<rect width="94" height="37.6" fill="white" transform="translate(0 13)"/>
</clipPath>
<clipPath id="clip1_1_95">
<rect width="94" height="37.6" fill="white" transform="translate(0 13)"/>
</clipPath>
</defs>
</svg>
