<svg width="10" height="10" viewBox="0 0 10 10" fill="none" xmlns="http://www.w3.org/2000/svg">
    <path
        d="M5.46625 5L7.40375 3.0625C7.43436 3.03189 7.45865 2.99554 7.47522 2.95554C7.49179 2.91554 7.50031 2.87267 7.50031 2.82938C7.50031 2.78608 7.49179 2.74321 7.47522 2.70321C7.45865 2.66321 7.43436 2.62686 7.40375 2.59625C7.37314 2.56564 7.33679 2.54135 7.29679 2.52478C7.25679 2.50821 7.21392 2.49969 7.17062 2.49969C7.12733 2.49969 7.08446 2.50821 7.04446 2.52478C7.00446 2.54135 6.96811 2.56564 6.9375 2.59625L5 4.53375L3.0625 2.59625C3.03189 2.56564 2.99554 2.54135 2.95554 2.52478C2.91554 2.50821 2.87267 2.49969 2.82938 2.49969C2.78608 2.49969 2.74321 2.50821 2.70321 2.52478C2.66321 2.54135 2.62686 2.56564 2.59625 2.59625C2.56564 2.62686 2.54135 2.66321 2.52478 2.70321C2.50821 2.74321 2.49969 2.78608 2.49969 2.82938C2.49969 2.87267 2.50821 2.91554 2.52478 2.95554C2.54135 2.99554 2.56564 3.03189 2.59625 3.0625L4.53375 5L2.59625 6.9375C2.56564 6.96811 2.54135 7.00446 2.52478 7.04446C2.50821 7.08446 2.49969 7.12733 2.49969 7.17062C2.49969 7.21392 2.50821 7.25679 2.52478 7.29679C2.54135 7.33679 2.56564 7.37314 2.59625 7.40375C2.62686 7.43436 2.66321 7.45865 2.70321 7.47522C2.74321 7.49179 2.78608 7.50031 2.82938 7.50031C2.87267 7.50031 2.91554 7.49179 2.95554 7.47522C2.99554 7.45865 3.03189 7.43436 3.0625 7.40375L5 5.46625L6.9375 7.40375C6.96811 7.43436 7.00446 7.45865 7.04446 7.47522C7.08446 7.49179 7.12733 7.50031 7.17062 7.50031C7.21392 7.50031 7.25679 7.49179 7.29679 7.47522C7.33679 7.45865 7.37314 7.43436 7.40375 7.40375C7.43436 7.37314 7.45865 7.33679 7.47522 7.29679C7.49179 7.25679 7.50031 7.21392 7.50031 7.17062C7.50031 7.12733 7.49179 7.08446 7.47522 7.04446C7.45865 7.00446 7.43436 6.96811 7.40375 6.9375L5.46625 5ZM5 10C3.67392 10 2.40215 9.47322 1.46447 8.53553C0.526784 7.59785 0 6.32608 0 5C0 3.67392 0.526784 2.40215 1.46447 1.46447C2.40215 0.526784 3.67392 0 5 0C6.32608 0 7.59785 0.526784 8.53553 1.46447C9.47322 2.40215 10 3.67392 10 5C10 6.32608 9.47322 7.59785 8.53553 8.53553C7.59785 9.47322 6.32608 10 5 10Z"
        fill="#FF3030" />
</svg>
