<svg width="75" height="75" viewBox="0 0 75 75" fill="none" xmlns="http://www.w3.org/2000/svg">
    <rect width="75" height="75" rx="37.5" fill="#CC3300" fill-opacity="0.06" />
    <g clip-path="url(#clip0_4234_70705)">
        <path
            d="M41.9313 20C42.511 20.187 43.1292 20.2993 43.6623 20.5753C45.6033 21.5793 46.6462 23.1929 46.7182 25.3879C46.7484 26.3098 46.7271 27.2337 46.723 28.1562C46.7189 28.9692 46.1453 29.5636 45.37 29.5684C44.5755 29.5739 43.9971 28.9794 43.9868 28.1507C43.9745 27.1604 44.0273 26.1639 43.9299 25.1818C43.7831 23.7072 42.675 22.745 41.1697 22.7395C36.6264 22.7238 32.083 22.7196 27.5397 22.7416C25.8635 22.7498 24.7397 23.9613 24.7383 25.6715C24.7356 30.8896 24.7376 36.1076 24.7376 41.325C24.7376 43.9913 24.7363 46.6568 24.7383 49.323C24.7383 49.9853 24.881 50.6079 25.2899 51.1503C25.8601 51.9071 26.6402 52.2612 27.5664 52.2632C32.0981 52.2728 36.6305 52.2783 41.1622 52.2619C42.8129 52.2557 43.9621 51.0729 43.9848 49.421C43.9964 48.5669 43.9841 47.7122 43.9875 46.8575C43.991 46.0254 44.5693 45.4295 45.3625 45.4323C46.1522 45.435 46.7209 46.0322 46.723 46.8719C46.7257 47.8403 46.7347 48.8087 46.7182 49.7771C46.6757 52.2927 44.5913 54.6082 42.0857 54.9301C41.7701 54.9705 41.4503 54.9966 41.1327 54.9973C36.612 55.0014 32.0919 55.0021 27.5712 54.9993C24.879 54.9979 22.7232 53.2892 22.125 50.6675C22.0351 50.2723 22.0056 49.8559 22.0049 49.4497C21.9987 41.4853 21.9994 33.5215 22.0015 25.5585C22.0021 22.7395 23.8814 20.5383 26.68 20.0616C26.7205 20.0548 26.7561 20.0212 26.7946 20C31.8401 20 36.8864 20 41.932 20H41.9313Z"
            fill="#CC3300" />
        <path
            d="M56.9997 38.389C56.6972 39.4286 55.9418 40.1368 55.1987 40.8586C54.455 41.5812 53.7319 42.3256 52.9902 43.0509C52.5771 43.455 52.0736 43.5605 51.5384 43.355C51.0176 43.155 50.7178 42.7503 50.6622 42.1914C50.6163 41.7284 50.8104 41.3524 51.1336 41.0319C51.7243 40.4456 52.3103 39.8546 52.9017 39.269C52.9895 39.182 53.0972 39.1149 53.196 39.0382C53.1802 39.0033 53.1644 38.969 53.1487 38.9341H52.7617C47.4671 38.9341 42.1718 38.9348 36.8771 38.9334C35.9914 38.9334 35.3904 38.3266 35.4274 37.4829C35.4562 36.8185 36.0078 36.2515 36.672 36.2069C36.7969 36.1987 36.9231 36.2021 37.0487 36.2021C42.2754 36.2021 47.5014 36.2021 52.7281 36.2021H53.2056C53.0821 36.0665 53.0066 35.9768 52.9243 35.8933C52.2828 35.2454 51.6139 34.6221 51.0039 33.9455C50.3068 33.1729 50.6945 31.9915 51.7024 31.7306C52.1511 31.6148 52.5806 31.6956 52.9113 32.0203C54.0495 33.1387 55.1967 34.2502 56.2841 35.4166C56.6169 35.7734 56.7672 36.2987 57.0011 36.7473V38.3883L56.9997 38.389Z"
            fill="#CC3300" />
    </g>
    <defs>
        <clipPath id="clip0_4234_70705">
            <rect width="35" height="35" fill="white" transform="translate(22 20)" />
        </clipPath>
    </defs>
</svg>
