<svg width="11" height="10" viewBox="0 0 11 10" fill="none" xmlns="http://www.w3.org/2000/svg">
    <path
        d="M6.3502 3.19961V2.14961C6.3502 1.87113 6.23957 1.60406 6.04266 1.40715C5.84574 1.21023 5.57867 1.09961 5.3002 1.09961H1.6252C1.34672 1.09961 1.07965 1.21023 0.882733 1.40715C0.68582 1.60406 0.575195 1.87113 0.575195 2.14961V8.44961C0.575195 8.72809 0.68582 8.99516 0.882733 9.19207C1.07965 9.38899 1.34672 9.49961 1.6252 9.49961H5.3002C5.57867 9.49961 5.84574 9.38899 6.04266 9.19207C6.23957 8.99516 6.3502 8.72809 6.3502 8.44961V7.39961"
        stroke="#F9DD2E" stroke-linecap="round" stroke-linejoin="round" />
    <path d="M3.7251 5.29961H10.0251M10.0251 5.29961L8.4501 3.72461M10.0251 5.29961L8.4501 6.87461"
        stroke="#F9DD2E" stroke-linecap="round" stroke-linejoin="round" />
</svg>
