<svg width="248" height="207" viewBox="0 0 248 207" fill="none" xmlns="http://www.w3.org/2000/svg">
    <path
        d="M145.399 87.4305C149.132 90.3959 149.761 95.8174 146.807 99.5588C145.33 101.424 143.231 102.514 141.034 102.77C138.838 103.025 136.555 102.442 134.679 100.967C105.38 77.7541 62.6625 82.7143 39.4626 112.024C36.4972 115.757 31.0756 116.386 27.3343 113.432C23.6015 110.467 22.9723 105.045 25.9264 101.304C55.0374 64.5438 108.641 58.3195 145.399 87.4305Z"
        fill="#FFD869" />
    <path
        d="M127.037 114.451C130.768 117.405 131.399 122.838 128.443 126.57C126.966 128.435 124.867 129.527 122.671 129.782C120.474 130.037 118.191 129.455 116.315 127.979C108.47 121.756 98.6439 118.966 88.6586 120.125C78.6619 121.286 69.7375 126.254 63.5273 134.109C60.5619 137.842 55.1418 138.482 51.399 135.517C47.6676 132.562 47.037 127.13 49.9925 123.398C59.0736 111.93 72.0977 104.673 86.6694 102.982C101.23 101.29 115.57 105.37 127.038 114.451H127.037Z"
        fill="#FFD869" />
    <path
        d="M165.171 72.55C163.683 74.4164 161.595 75.5055 159.398 75.7609C157.202 76.0162 154.908 75.435 153.043 73.9579C110.685 40.4044 48.9401 47.5753 15.3979 89.9418C12.4325 93.6747 7.01094 94.3039 3.26961 91.3497C-0.463258 88.3843 -1.09246 82.9628 1.86167 79.2214C41.3135 29.4034 113.945 20.9699 163.763 60.4217C167.496 63.3871 168.125 68.8086 165.171 72.55Z"
        fill="#FFD869" />
    <path
        d="M107.967 156.71C110.146 148.138 104.963 139.424 96.3914 137.245C87.8199 135.067 79.1053 140.249 76.9268 148.821C74.7484 157.392 79.9309 166.107 88.5025 168.285C97.074 170.464 105.789 165.281 107.967 156.71Z"
        fill="#FFD869" />
    <path
        d="M154.686 148.349C154.61 148.579 144.237 164.66 144.237 164.66L129.078 134.546L112.751 147.607L127.655 184.951C130.403 190.758 136.066 194.636 142.473 195.1C149.087 195.58 155.42 192.346 158.911 186.709L179.874 152.856L154.688 148.35L154.686 148.349Z"
        fill="white" />
    <path
        d="M143.778 195.595C143.334 195.595 142.888 195.579 142.441 195.547C135.884 195.071 130.061 191.085 127.248 185.141L112.334 147.772C112.26 147.588 112.315 147.378 112.471 147.254L128.797 134.193C128.903 134.108 129.041 134.076 129.174 134.104C129.307 134.132 129.419 134.22 129.48 134.341L144.286 163.754C147.349 159.004 154.037 148.614 154.283 148.151C154.353 147.939 154.545 147.865 154.767 147.904L179.953 152.41C180.1 152.437 180.224 152.533 180.284 152.67C180.345 152.805 180.335 152.963 180.256 153.09L159.294 186.943C155.939 192.361 150.081 195.595 143.778 195.595ZM113.293 147.748L128.072 184.781C130.736 190.406 136.27 194.197 142.506 194.648C148.975 195.117 155.114 191.982 158.529 186.469L179.143 153.179L154.909 148.844C154.365 149.731 152.333 152.938 144.616 164.902C144.529 165.038 144.381 165.118 144.214 165.108C144.053 165.1 143.909 165.005 143.836 164.862L128.927 135.243L113.295 147.749L113.293 147.748Z"
        fill="#030047" />
    <path
        d="M182.901 131.047L173.456 163.142L162.141 158.375L153.175 154.597L148.486 152.623L159.532 136.888C162.969 132.001 168.78 129.344 174.727 129.944L182.901 131.047Z"
        fill="#AFA9FF" />
    <path
        d="M173.453 163.591C173.394 163.591 173.335 163.579 173.279 163.555L148.311 153.038C148.187 152.986 148.092 152.88 148.054 152.75C148.016 152.621 148.039 152.481 148.116 152.369L158.32 137.585C158.461 137.38 158.742 137.329 158.945 137.47C159.15 137.612 159.201 137.892 159.06 138.095L149.17 152.424L173.163 162.531L177.037 149.229C177.107 148.991 177.356 148.854 177.594 148.923C177.832 148.992 177.969 149.242 177.9 149.48L173.885 163.268C173.848 163.39 173.762 163.493 173.647 163.548C173.586 163.578 173.52 163.592 173.453 163.592V163.591Z"
        fill="#030047" />
    <path
        d="M176.392 130.292C176.392 130.292 194.1 132.273 200.541 133.4C205.232 134.221 216.647 136.147 222.82 138.162C225.519 139.042 227.143 142.377 227.02 145.214L224.569 201.784H156.426L176.391 130.292H176.392Z"
        fill="#AFA9FF" />
    <g opacity="0.4">
        <path
            d="M162.98 155.61C162.98 156.635 162.668 157.583 162.141 158.375L153.175 154.597C153.637 152.342 155.634 150.651 158.021 150.651C160.762 150.651 162.98 152.87 162.98 155.61Z"
            fill="white" />
    </g>
    <g opacity="0.4">
        <path
            d="M206.722 178.478C207.873 177.328 207.873 175.462 206.722 174.311C205.571 173.16 203.705 173.16 202.554 174.311C201.403 175.462 201.403 177.328 202.554 178.478C203.705 179.629 205.571 179.629 206.722 178.478Z"
            fill="white" />
    </g>
    <g opacity="0.4">
        <path
            d="M199.378 149.827C201.248 149.827 202.763 148.311 202.763 146.441C202.763 144.572 201.248 143.056 199.378 143.056C197.508 143.056 195.992 144.572 195.992 146.441C195.992 148.311 197.508 149.827 199.378 149.827Z"
            fill="white" />
    </g>
    <g opacity="0.4">
        <path
            d="M168.527 137.666C169.537 136.657 169.537 135.02 168.527 134.011C167.518 133.002 165.882 133.002 164.872 134.011C163.863 135.02 163.863 136.657 164.872 137.666C165.882 138.675 167.518 138.675 168.527 137.666Z"
            fill="white" />
    </g>
    <g opacity="0.4">
        <path
            d="M167.647 145.946C168.325 145.946 168.876 145.396 168.876 144.718C168.876 144.039 168.325 143.489 167.647 143.489C166.968 143.489 166.418 144.039 166.418 144.718C166.418 145.396 166.968 145.946 167.647 145.946Z"
            fill="white" />
    </g>
    <g opacity="0.4">
        <path
            d="M185.55 152.437C185.832 151.243 185.092 150.047 183.899 149.765C182.705 149.484 181.509 150.223 181.228 151.416C180.946 152.61 181.685 153.806 182.879 154.088C184.072 154.369 185.268 153.63 185.55 152.437Z"
            fill="white" />
    </g>
    <g opacity="0.4">
        <path
            d="M173.174 174.902C174.422 174.902 175.433 173.891 175.433 172.643C175.433 171.396 174.422 170.385 173.174 170.385C171.927 170.385 170.916 171.396 170.916 172.643C170.916 173.891 171.927 174.902 173.174 174.902Z"
            fill="white" />
    </g>
    <g opacity="0.4">
        <path
            d="M193.832 183.239C194.124 182 193.357 180.758 192.118 180.466C190.879 180.173 189.637 180.941 189.345 182.18C189.052 183.419 189.819 184.66 191.059 184.953C192.298 185.245 193.539 184.478 193.832 183.239Z"
            fill="white" />
    </g>
    <g opacity="0.4">
        <path
            d="M197.21 164.903C197.539 162.878 196.164 160.971 194.14 160.643C192.116 160.314 190.208 161.689 189.88 163.713C189.551 165.737 190.926 167.644 192.95 167.973C194.974 168.301 196.882 166.927 197.21 164.903Z"
            fill="white" />
    </g>
    <g opacity="0.4">
        <path
            d="M174.782 197.026C177.806 197.026 180.256 194.575 180.256 191.552C180.256 188.529 177.806 186.078 174.782 186.078C171.759 186.078 169.309 188.529 169.309 191.552C169.309 194.575 171.759 197.026 174.782 197.026Z"
            fill="white" />
    </g>
    <g opacity="0.4">
        <path
            d="M198.537 202.614C200.599 202.614 202.271 200.942 202.271 198.879C202.271 196.817 200.599 195.145 198.537 195.145C196.474 195.145 194.802 196.817 194.802 198.879C194.802 200.942 196.474 202.614 198.537 202.614Z"
            fill="white" />
    </g>
    <g opacity="0.4">
        <path
            d="M209.884 160.586C211.152 160.586 212.18 159.557 212.18 158.289C212.18 157.02 211.152 155.992 209.884 155.992C208.615 155.992 207.587 157.02 207.587 158.289C207.587 159.557 208.615 160.586 209.884 160.586Z"
            fill="white" />
    </g>
    <path
        d="M246.574 202.516H24.6933C24.445 202.516 24.2433 202.315 24.2433 202.066C24.2433 201.818 24.445 201.616 24.6933 201.616H246.574C246.823 201.616 247.025 201.818 247.025 202.066C247.025 202.315 246.823 202.516 246.574 202.516Z"
        fill="#030047" />
    <path
        d="M208.741 136.088L212.393 117.085L195.721 113.879C195.721 113.879 190.346 132.24 190.357 132.26C191.487 141.966 198.882 143.467 208.741 136.088Z"
        fill="white" />
    <path
        d="M197.837 141.182C196.747 141.182 195.738 140.988 194.829 140.598C192.105 139.427 190.404 136.561 189.91 132.312L189.942 132.308C190.012 131.783 190.758 129.235 195.289 113.752C195.354 113.529 195.577 113.393 195.806 113.436L212.478 116.642C212.595 116.664 212.698 116.732 212.766 116.831C212.832 116.929 212.857 117.051 212.835 117.168L209.182 136.171C209.161 136.281 209.101 136.378 209.01 136.446C204.844 139.565 200.992 141.18 197.837 141.18V141.182ZM190.813 132.294C191.28 136.158 192.791 138.743 195.185 139.772C198.384 141.149 203.05 139.75 208.332 135.832L211.867 117.443L196.037 114.4C194.257 120.483 191.101 131.277 190.813 132.295V132.294Z"
        fill="#030047" />
    <path
        d="M212.001 119.147C217.953 110.678 219.804 96.757 219.804 96.757L199.512 84.9546C199.002 85.2946 184.841 89.2489 182.652 105.075C180.702 119.171 184.376 128.869 204.181 125.37"
        fill="white" />
    <path
        d="M196.79 126.544C191.853 126.544 188.188 125.345 185.678 122.928C182.145 119.525 181.01 113.665 182.206 105.014C183.515 95.551 189.446 88.3434 198.905 84.7192C199.095 84.6458 199.225 84.5979 199.282 84.5697C199.426 84.4737 199.589 84.4808 199.737 84.5668L220.03 96.3692C220.186 96.4609 220.274 96.6373 220.25 96.8179C220.231 96.9575 218.316 110.945 212.369 119.407C212.227 119.61 211.945 119.658 211.743 119.517C211.54 119.374 211.49 119.094 211.633 118.891C216.978 111.287 219.006 99.0483 219.316 96.9956L199.485 85.4613C199.417 85.4881 199.334 85.5205 199.228 85.56C190.089 89.0615 184.36 96.0151 183.097 105.139C181.943 113.485 182.992 119.092 186.303 122.282C189.721 125.575 195.545 126.441 204.105 124.929C204.349 124.886 204.583 125.049 204.626 125.293C204.669 125.537 204.506 125.771 204.26 125.813C201.505 126.3 199.018 126.544 196.79 126.544Z"
        fill="#030047" />
    <path
        d="M208.003 81.4744C208.003 81.4744 214.682 78.842 217.908 81.3334C221.134 83.8233 217.512 89.7104 217.512 89.7104C217.512 89.7104 223.059 88.8047 225.832 95.1447C228.606 101.485 218.53 110.234 218.53 110.234C218.53 110.234 212.726 106.446 212.692 106.424C212.805 106.497 212.355 106.788 212.321 106.799C211.801 106.989 210.904 106.157 210.644 105.806C210.167 105.162 210.057 104.229 209.74 103.479C209.364 102.592 208.89 101.746 208.337 100.957C206.176 97.8773 202.765 95.6413 199.019 95.1122C196.813 94.8004 194.549 95.0304 192.358 94.6171C189.621 94.1007 187.091 92.5531 185.387 90.3495C183.683 88.1473 182.818 85.3089 183.007 82.5311C183.116 80.913 183.605 79.261 184.71 78.0731C186.289 76.376 188.763 75.9372 191.054 75.5916C194.395 75.0879 197.838 74.5871 201.118 75.3969C204.399 76.2067 207.512 78.6628 208.027 82.0006"
        fill="#030047" />
    <path
        d="M189.679 103.821C189.265 104.688 188.458 105.167 187.876 104.89C187.293 104.613 187.158 103.684 187.571 102.816C187.984 101.949 188.791 101.47 189.374 101.747C189.957 102.023 190.092 102.953 189.679 103.821Z"
        fill="#030047" />
    <path d="M188.879 99.7196C190.117 99.6886 191.283 100.483 191.833 101.736L188.879 99.7196Z"
        fill="white" />
    <path
        d="M191.833 102.187C191.659 102.187 191.494 102.087 191.421 101.918C190.943 100.829 189.952 100.143 188.889 100.17C188.642 100.171 188.434 99.9795 188.427 99.7312C188.42 99.4829 188.618 99.277 188.866 99.2699C190.291 99.2374 191.617 100.132 192.243 101.555C192.344 101.782 192.241 102.048 192.012 102.148C191.953 102.173 191.892 102.186 191.831 102.186L191.833 102.187Z"
        fill="#030047" />
    <path
        d="M198.849 108.187C199.262 107.319 199.126 106.391 198.543 106.113C197.961 105.836 197.153 106.314 196.74 107.182C196.326 108.05 196.463 108.979 197.045 109.256C197.628 109.534 198.435 109.055 198.849 108.187Z"
        fill="#030047" />
    <path d="M198.043 104.076C199.282 104.045 200.447 104.839 200.997 106.092L198.043 104.076Z"
        fill="white" />
    <path
        d="M200.997 106.542C200.824 106.542 200.659 106.442 200.585 106.273C200.107 105.183 199.122 104.496 198.053 104.525C197.795 104.527 197.599 104.334 197.592 104.086C197.586 103.838 197.782 103.632 198.03 103.625C199.455 103.589 200.781 104.487 201.408 105.91C201.508 106.137 201.405 106.402 201.176 106.502C201.117 106.528 201.056 106.541 200.996 106.541L200.997 106.542Z"
        fill="#030047" />
    <path
        d="M212.393 106.531C212.393 106.531 218.691 102.323 221.428 103.95C224.163 105.575 220.992 115.725 217.304 116.003C213.617 116.281 211.08 114.338 211.08 114.338"
        fill="white" />
    <path
        d="M216.576 116.478C213.181 116.478 210.909 114.771 210.806 114.692C210.61 114.541 210.572 114.261 210.723 114.063C210.873 113.866 211.156 113.828 211.354 113.978C211.378 113.997 213.808 115.812 217.272 115.553C219.127 115.413 220.979 112.163 221.697 109.101C222.256 106.719 222.061 104.847 221.199 104.335C219.158 103.121 214.332 105.778 212.644 106.905C212.437 107.043 212.158 106.987 212.021 106.781C211.883 106.575 211.938 106.295 212.145 106.157C212.412 105.979 218.713 101.812 221.659 103.563C222.902 104.302 223.245 106.449 222.573 109.309C221.772 112.723 219.717 116.272 217.339 116.452C217.08 116.471 216.825 116.48 216.578 116.48L216.576 116.478Z"
        fill="#030047" />
    <path
        d="M217.849 111.476C217.757 111.476 217.665 111.448 217.585 111.391C217.383 111.246 217.338 110.965 217.483 110.763C217.864 110.236 218.141 109.621 218.283 108.986C218.364 108.623 218.349 108.371 218.241 108.234C218.165 108.138 218.017 108.079 217.854 108.077C217.706 108.072 217.49 108.13 217.263 108.242C216.925 108.41 216.617 108.653 216.374 108.942C216.215 109.133 215.931 109.158 215.741 108.999C215.551 108.839 215.525 108.556 215.685 108.365C216.006 107.98 216.414 107.66 216.864 107.437C217.221 107.259 217.536 107.179 217.864 107.179C218.297 107.183 218.702 107.369 218.946 107.675C219.235 108.039 219.306 108.533 219.162 109.182C218.994 109.937 218.667 110.666 218.214 111.292C218.127 111.414 217.988 111.479 217.849 111.479V111.476Z"
        fill="#030047" />
    <path
        d="M193.104 105.205C192.514 106.462 190.829 109.847 190.239 111.104C189.883 111.863 189.522 112.652 189.591 113.463C189.661 114.274 190.291 115.114 191.26 115.263"
        fill="white" />
    <path
        d="M191.26 115.712C191.238 115.712 191.215 115.711 191.191 115.707C189.952 115.516 189.223 114.452 189.143 113.5C189.062 112.555 189.471 111.682 189.831 110.913C190.126 110.284 190.693 109.125 191.263 107.966C191.832 106.805 192.402 105.642 192.696 105.013C192.802 104.789 193.069 104.691 193.295 104.797C193.519 104.903 193.616 105.171 193.51 105.395C193.214 106.027 192.641 107.195 192.07 108.362C191.504 109.516 190.939 110.67 190.645 111.295C190.333 111.962 189.978 112.719 190.039 113.425C190.088 114.012 190.558 114.701 191.327 114.819C191.572 114.857 191.74 115.086 191.703 115.333C191.669 115.556 191.478 115.714 191.259 115.714L191.26 115.712Z"
        fill="#030047" />
    <path
        d="M194.265 120.344C194.221 120.344 194.178 120.336 194.134 120.324C193.897 120.252 193.763 120.001 193.835 119.762C194.224 118.486 195.121 117.391 196.297 116.759C197.472 116.127 198.88 115.981 200.161 116.361C200.399 116.432 200.535 116.681 200.464 116.92C200.393 117.158 200.142 117.293 199.905 117.223C198.851 116.91 197.692 117.03 196.724 117.55C195.756 118.071 195.017 118.972 194.697 120.025C194.638 120.218 194.46 120.344 194.267 120.344H194.265Z"
        fill="#030047" />
    <path
        d="M167.706 161.848C167.667 161.848 167.626 161.842 167.586 161.831C167.346 161.765 167.207 161.518 167.272 161.278L173.02 140.435C173.087 140.196 173.336 140.056 173.573 140.121C173.813 140.187 173.953 140.434 173.888 140.674L168.139 161.516C168.084 161.715 167.904 161.847 167.706 161.847V161.848Z"
        fill="#030047" />
    <path
        d="M244.093 177.936H216.237L211.356 135.376L220.993 136.618C225.359 137.014 229.281 139.149 231.967 142.399C233.299 144 234.33 145.877 234.965 147.946C235.307 149.068 235.661 150.219 236.021 151.394C239.133 161.54 242.66 173.193 244.093 177.936Z"
        fill="#AFA9FF" />
    <g opacity="0.4">
        <path
            d="M223.721 155.713C225.607 154.931 226.503 152.769 225.722 150.883C224.941 148.997 222.778 148.102 220.893 148.883C219.007 149.664 218.111 151.826 218.892 153.712C219.673 155.598 221.835 156.494 223.721 155.713Z"
            fill="white" />
    </g>
    <g opacity="0.4">
        <path
            d="M236.021 151.394C235.349 151.736 234.587 151.935 233.772 151.935C231.044 151.935 228.837 149.723 228.837 147C228.837 144.906 230.132 143.12 231.968 142.401C233.299 144.002 234.331 145.878 234.965 147.948C235.307 149.07 235.661 150.221 236.021 151.396V151.394Z"
            fill="white" />
    </g>
    <g opacity="0.4">
        <path
            d="M229.978 163.629C229.978 164.167 230.416 164.605 230.955 164.605C231.494 164.605 231.931 164.167 231.931 163.629C231.931 163.09 231.494 162.652 230.955 162.652C230.416 162.652 229.978 163.09 229.978 163.629Z"
            fill="white" />
    </g>
    <g opacity="0.4">
        <path
            d="M223.572 172.05C224.216 171.783 224.522 171.044 224.255 170.4C223.989 169.756 223.25 169.45 222.606 169.717C221.961 169.983 221.656 170.722 221.922 171.366C222.189 172.01 222.928 172.316 223.572 172.05Z"
            fill="white" />
    </g>
    <path
        d="M215.575 178.639C215.338 178.639 215.141 178.456 215.126 178.22L213.128 148.632C213.111 148.384 213.299 148.17 213.547 148.153C213.787 148.134 214.01 148.323 214.027 148.572L215.996 177.736L243.491 177.492C243.142 176.317 242.588 174.412 241.94 172.19C240.463 167.117 238.441 160.171 237.35 156.71C237.275 156.473 237.406 156.221 237.643 156.146C237.88 156.071 238.133 156.202 238.207 156.439C239.302 159.91 241.326 166.862 242.804 171.939C243.568 174.569 244.204 176.751 244.522 177.808C244.563 177.944 244.537 178.09 244.454 178.205C244.369 178.319 244.237 178.387 244.096 178.388L215.579 178.64H215.575V178.639Z"
        fill="#030047" />
    <path
        d="M243.516 177.937L245.271 188.758C246.302 196.34 241.679 203.55 234.359 205.778C226.797 208.079 218.709 204.36 215.536 197.12L193.9 149.015L193.986 149.204C194.259 149.803 194.11 150.51 193.619 150.949C192.949 151.547 191.906 151.427 191.388 150.692L186.593 143.867C185.824 142.773 185.638 141.341 186.204 140.131C186.566 139.355 187.184 138.722 188.237 138.827C188.237 138.827 188.584 135.683 190.978 135.797C190.978 135.797 191.719 132.44 194.831 133.254L189.65 125.755C188.781 124.583 189.065 122.921 190.274 122.104C191.314 121.402 192.71 121.554 193.572 122.467C193.572 122.467 202.785 130.714 206.372 135.231C214.333 145.258 234.638 177.935 234.638 177.935H243.51L243.516 177.937Z"
        fill="white" />
    <path
        d="M229.82 206.905C223.596 206.905 217.739 203.263 215.125 197.301L194.254 150.898C194.162 151.038 194.049 151.169 193.919 151.285C193.503 151.656 192.947 151.831 192.396 151.767C191.843 151.704 191.342 151.406 191.022 150.95L186.227 144.125C185.343 142.868 185.18 141.264 185.799 139.941C186.258 138.962 186.963 138.426 187.856 138.371C188.099 137.179 188.893 135.48 190.642 135.353C190.828 134.801 191.298 133.729 192.293 133.12C192.772 132.826 193.306 132.678 193.888 132.677L189.284 126.012C188.798 125.358 188.604 124.54 188.743 123.723C188.883 122.905 189.339 122.198 190.027 121.734C191.255 120.903 192.885 121.082 193.904 122.16C193.97 122.216 203.16 130.458 206.729 134.954C214.279 144.464 233.124 174.65 234.892 177.488H243.515C243.735 177.488 243.924 177.648 243.959 177.866L245.714 188.688C246.782 196.542 242.062 203.906 234.49 206.21C232.941 206.681 231.369 206.907 229.82 206.907V206.905ZM194.427 149.09L215.947 196.935C219.029 203.967 226.887 207.581 234.229 205.346C241.376 203.171 245.832 196.22 244.825 188.818L243.134 178.385H234.644C234.489 178.385 234.343 178.305 234.261 178.172C234.058 177.846 213.88 145.402 206.025 135.511C202.501 131.074 193.369 122.883 193.278 122.802C192.535 122.02 191.393 121.894 190.531 122.477C190.048 122.803 189.729 123.3 189.631 123.872C189.532 124.446 189.67 125.019 190.016 125.488L195.205 132.997C195.312 133.152 195.31 133.357 195.203 133.511C195.095 133.664 194.901 133.735 194.721 133.688C193.962 133.489 193.306 133.556 192.767 133.883C191.744 134.505 191.424 135.881 191.42 135.895C191.372 136.108 191.183 136.259 190.96 136.246C189.002 136.149 188.69 138.849 188.687 138.876C188.66 139.121 188.439 139.299 188.195 139.274C187.489 139.203 186.977 139.544 186.615 140.32C186.132 141.353 186.266 142.613 186.964 143.607L191.76 150.433C191.934 150.682 192.198 150.839 192.5 150.873C192.802 150.908 193.094 150.815 193.321 150.613C193.654 150.317 193.763 149.853 193.601 149.442L193.492 149.2C193.39 148.974 193.492 148.707 193.716 148.606C193.942 148.504 194.207 148.603 194.312 148.829L194.398 149.018C194.409 149.042 194.419 149.066 194.429 149.09H194.427Z"
        fill="#030047" />
    <path
        d="M193.901 149.465C193.761 149.465 193.623 149.4 193.534 149.277L190.447 144.959C190.304 144.757 190.35 144.476 190.552 144.331C190.754 144.187 191.034 144.234 191.18 144.436L194.266 148.754C194.41 148.956 194.364 149.236 194.162 149.382C194.083 149.438 193.991 149.465 193.901 149.465Z"
        fill="#030047" />
    <path
        d="M192.891 138.611C192.76 138.611 192.63 138.555 192.541 138.445L190.631 136.081C190.474 135.887 190.505 135.604 190.699 135.449C190.892 135.292 191.175 135.323 191.331 135.516L193.241 137.881C193.397 138.074 193.366 138.358 193.173 138.513C193.09 138.58 192.99 138.613 192.891 138.613V138.611Z"
        fill="#030047" />
    <path
        d="M189.89 140.95C189.775 140.95 189.657 140.904 189.57 140.815L187.919 139.142C187.744 138.966 187.747 138.681 187.924 138.506C188.1 138.331 188.385 138.334 188.56 138.51L190.21 140.183C190.385 140.36 190.383 140.645 190.206 140.82C190.119 140.906 190.004 140.95 189.89 140.95Z"
        fill="#030047" />
    <path
        d="M238.209 184.104C238.059 184.104 237.912 184.029 237.826 183.893L234.261 178.175C234.13 177.965 234.194 177.687 234.405 177.556C234.615 177.424 234.893 177.488 235.025 177.699L238.59 183.417C238.721 183.627 238.657 183.905 238.446 184.037C238.371 184.083 238.289 184.104 238.207 184.104H238.209Z"
        fill="#030047" />
    <path
        d="M197.149 136.286C197.024 136.286 196.902 136.236 196.813 136.137L194.499 133.554C194.334 133.369 194.35 133.084 194.535 132.919C194.719 132.753 195.004 132.769 195.169 132.954L197.483 135.537C197.648 135.722 197.633 136.007 197.448 136.172C197.362 136.25 197.254 136.286 197.147 136.286H197.149Z"
        fill="#030047" />
    <path
        d="M142.963 144.291H122.436C120.852 144.293 119.452 143.264 118.98 141.752L107.196 105.429C106.468 103.099 108.209 100.73 110.652 100.73H131.179C132.763 100.729 134.162 101.757 134.635 103.269L146.419 139.592C147.147 141.923 145.406 144.291 142.963 144.291Z"
        fill="#010133" />
    <path
        d="M140.612 143.706H120.796C119.211 143.707 117.812 142.679 117.339 141.167L106.626 106.871C105.898 104.541 107.639 102.172 110.082 102.172H129.899C131.483 102.17 132.883 103.199 133.356 104.711L144.069 139.007C144.797 141.337 143.056 143.706 140.612 143.706Z"
        fill="#030047" />
    <path
        d="M113.556 149.366C113.556 149.366 108.859 141.423 108.044 138.036C107.234 134.642 107.031 126.887 111.355 122.783C115.548 118.804 120.59 117.505 125.951 119.383C131.317 121.266 129.075 123.611 129.075 123.611C129.075 123.611 134.886 123.923 135.108 126.075C135.252 127.485 133.741 127.97 132.678 128.144C134.831 128.168 136.139 129.763 135.628 131.549C135.047 133.595 129.445 133.984 129.445 133.984C130.945 133.954 132.461 134.866 132.197 136.856C131.939 138.847 128.299 139.459 128.299 139.459C131.729 142.553 128.299 146.152 128.299 146.152"
        fill="white" />
    <path
        d="M113.556 149.816C113.402 149.816 113.252 149.737 113.168 149.594C112.974 149.267 108.427 141.554 107.605 138.14C106.671 134.224 106.778 126.503 111.044 122.456C115.461 118.266 120.667 117.055 126.099 118.957C128.359 119.75 129.648 120.75 129.932 121.931C130.053 122.436 129.967 122.879 129.831 123.217C131.52 123.387 135.346 123.995 135.555 126.028C135.613 126.591 135.49 127.468 134.397 128.066C134.888 128.296 135.304 128.626 135.614 129.042C136.173 129.792 136.332 130.725 136.061 131.672C135.649 133.121 133.351 133.825 131.574 134.158C131.73 134.272 131.874 134.402 132.001 134.544C132.547 135.154 132.769 135.975 132.645 136.916C132.429 138.583 130.358 139.39 129.178 139.718C129.868 140.53 130.235 141.432 130.272 142.408C130.355 144.621 128.697 146.388 128.627 146.461C128.455 146.64 128.171 146.647 127.992 146.477C127.813 146.306 127.804 146.021 127.975 145.84C127.989 145.825 129.445 144.266 129.373 142.435C129.335 141.468 128.872 140.58 127.999 139.791C127.871 139.675 127.82 139.498 127.869 139.331C127.917 139.166 128.055 139.042 128.226 139.014C129.147 138.857 131.577 138.154 131.753 136.796C131.843 136.112 131.702 135.556 131.331 135.141C130.921 134.681 130.217 134.416 129.455 134.432C129.211 134.437 129.008 134.247 128.996 134.003C128.985 133.759 129.171 133.551 129.414 133.534C131.458 133.392 134.835 132.692 135.195 131.425C135.387 130.754 135.278 130.099 134.892 129.58C134.432 128.962 133.622 128.602 132.673 128.591C132.44 128.588 132.247 128.408 132.23 128.175C132.213 127.942 132.375 127.735 132.606 127.697C134.052 127.46 134.744 126.928 134.66 126.118C134.522 124.782 130.822 124.153 129.051 124.057C128.876 124.047 128.723 123.937 128.658 123.773C128.593 123.61 128.629 123.423 128.751 123.296C128.768 123.278 129.218 122.783 129.056 122.13C128.909 121.539 128.225 120.654 125.802 119.805C120.708 118.022 115.82 119.163 111.665 123.107C107.674 126.895 107.594 134.21 108.481 137.93C109.271 141.213 113.896 149.057 113.942 149.136C114.069 149.35 113.997 149.625 113.784 149.752C113.712 149.795 113.633 149.814 113.556 149.814V149.816Z"
        fill="#030047" />
    <path
        d="M129.078 123.614C129.078 123.614 125.684 123.392 123.345 124.195C120.765 125.08 117.41 126.887 117.41 126.887"
        fill="white" />
    <path
        d="M117.41 127.337C117.249 127.337 117.095 127.251 117.013 127.1C116.895 126.881 116.977 126.609 117.197 126.49C117.335 126.416 120.614 124.656 123.199 123.769C125.596 122.948 128.965 123.155 129.108 123.165C129.356 123.181 129.544 123.395 129.527 123.643C129.51 123.892 129.297 124.079 129.048 124.062C129.016 124.061 125.715 123.856 123.49 124.62C120.973 125.483 117.655 127.263 117.623 127.282C117.555 127.318 117.482 127.335 117.41 127.335V127.337Z"
        fill="#030047" />
    <path
        d="M132.819 128.148C132.819 128.148 127.99 128.398 126 128.803C124.009 129.207 117.999 132.011 117.999 132.011"
        fill="white" />
    <path
        d="M117.999 132.461C117.83 132.461 117.668 132.365 117.592 132.201C117.486 131.975 117.585 131.709 117.809 131.603C118.056 131.487 123.889 128.774 125.91 128.362C127.91 127.955 132.598 127.709 132.797 127.699C133.051 127.688 133.257 127.877 133.269 128.125C133.282 128.374 133.092 128.585 132.843 128.598C132.795 128.601 128.026 128.85 126.09 129.244C124.173 129.635 118.249 132.39 118.19 132.418C118.128 132.446 118.064 132.461 118.001 132.461H117.999Z"
        fill="#030047" />
    <path
        d="M129.451 133.983C129.451 133.983 127.254 133.735 124.599 134.233C121.944 134.73 119.124 136.666 119.124 136.666"
        fill="white" />
    <path
        d="M119.125 137.115C118.981 137.115 118.84 137.047 118.754 136.92C118.615 136.716 118.667 136.435 118.871 136.295C118.99 136.214 121.801 134.301 124.517 133.791C127.207 133.288 129.41 133.527 129.501 133.537C129.748 133.566 129.926 133.788 129.898 134.034C129.87 134.281 129.648 134.457 129.401 134.43C129.38 134.427 127.234 134.196 124.684 134.674C122.157 135.148 119.407 137.018 119.381 137.036C119.303 137.09 119.214 137.115 119.127 137.115H119.125Z"
        fill="#030047" />
    <path
        d="M128.302 139.458C128.302 139.458 125.489 139.483 124.087 139.87C122.685 140.256 119.871 141.697 119.871 141.697"
        fill="white" />
    <path
        d="M119.872 142.147C119.708 142.147 119.551 142.058 119.471 141.901C119.358 141.68 119.445 141.409 119.666 141.296C119.783 141.237 122.536 139.83 123.967 139.435C125.409 139.037 128.181 139.008 128.298 139.006H128.302C128.549 139.006 128.749 139.205 128.752 139.452C128.755 139.7 128.555 139.904 128.306 139.906C128.278 139.906 125.536 139.936 124.207 140.303C122.865 140.672 120.104 142.082 120.076 142.096C120.011 142.13 119.941 142.145 119.872 142.145V142.147Z"
        fill="#030047" />
    <path
        d="M146.587 170.069C146.419 170.069 146.257 169.974 146.181 169.812L143.832 164.852C143.726 164.627 143.822 164.359 144.046 164.252C144.271 164.146 144.539 164.242 144.644 164.466L146.993 169.427C147.099 169.651 147.003 169.919 146.779 170.026C146.717 170.056 146.651 170.07 146.587 170.07V170.069Z"
        fill="#030047" />
    <path
        d="M155.567 31.0931C157.347 17.6056 147.477 5.17825 133.52 3.33589C119.564 1.49354 106.807 10.9338 105.026 24.4214C103.246 37.9089 113.116 50.3363 127.073 52.1787C141.029 54.021 153.787 44.5807 155.567 31.0931Z"
        fill="#030047" />
    <path
        d="M142.329 35.6867L135.15 40.9982C135.129 41.0138 135.099 41.0095 135.082 40.9898L118.28 19.8326L125.46 14.5211C125.481 14.5056 125.51 14.5099 125.527 14.5296L142.329 35.6867Z"
        fill="#888BFF" />
    <path
        d="M116.637 32.2923L122.191 39.2854C122.206 39.3052 122.237 39.3094 122.259 39.2939L143.977 23.2254L138.423 16.2322C138.408 16.2125 138.376 16.2083 138.355 16.2238L116.637 32.2923Z"
        fill="#888BFF" />
    <path
        d="M57.5429 180.249L54.8103 182.981C53.5265 184.255 51.4569 184.255 50.1844 182.981L47.4517 180.249C46.1778 178.975 46.1778 176.906 47.4517 175.633L50.1844 172.89C51.4583 171.616 53.5265 171.616 54.8103 172.89L57.5429 175.633C58.8168 176.906 58.8168 178.975 57.5429 180.249Z"
        fill="#FFD869" />
    <path
        d="M33.0366 160.196L32.4187 162.48C32.1252 163.548 31.0263 164.179 29.9611 163.891L27.6771 163.273C26.612 162.985 25.9814 161.886 26.2692 160.821L26.8829 158.531C27.1707 157.466 28.2696 156.836 29.3404 157.121L31.6286 157.744C32.6938 158.032 33.3244 159.131 33.0366 160.196Z"
        fill="#FFD869" />
    <path
        d="M163.264 113.569L162.646 115.853C162.352 116.921 161.253 117.552 160.188 117.264L157.904 116.646C156.839 116.358 156.208 115.259 156.496 114.194L157.11 111.905C157.398 110.839 158.497 110.209 159.567 110.494L161.856 111.117C162.921 111.405 163.551 112.504 163.264 113.569Z"
        fill="#FFD869" />
</svg>
