<svg width="88" height="88" viewBox="0 0 88 88" fill="none" xmlns="http://www.w3.org/2000/svg">
<ellipse cx="44" cy="44" rx="44" ry="44" fill="#8EA277" fill-opacity="0.2"/>
<ellipse cx="43.9549" cy="43.9539" rx="31.5135" ry="31.5135" fill="#8EA277" fill-opacity="0.55"/>
<path d="M40.6284 57C41.8048 57 42.829 56.4859 43.5258 55.5333L58.1895 35.3548C58.6033 34.7304 59 34.0586 59 33.4076C59 31.9623 57.5469 31 56.0049 31C55.0437 31 54.1532 31.5037 53.4594 32.4557L40.5151 50.7759L34.4225 43.931C33.6179 43.0172 32.8436 42.7342 31.8548 42.7342C30.274 42.7342 29 43.8645 29 45.2809C29 45.9786 29.3069 46.6061 29.8484 47.2328L37.5999 55.5543C38.4785 56.5386 39.4403 57 40.6284 57Z" fill="white"/>
</svg>
