<svg width="298" height="298" viewBox="0 0 298 298" fill="none" xmlns="http://www.w3.org/2000/svg">
    <circle cx="149" cy="149" r="149" fill="#F2F0FF" />
    <path
        d="M144.5 197.248H99.1428C79.1834 197.248 63 181.684 63 162.484C63 143.284 79.1834 127.718 99.1428 127.718C101.096 127.718 103.009 127.866 104.876 128.153C114.896 111.898 133.318 101 154.392 101C182.896 101 206.558 120.943 211.118 147.114C224.953 147.727 235.974 158.709 235.974 172.167C235.974 185.625 224.3 197.248 209.901 197.248H200.565"
        fill="white" />
    <path
        d="M144.5 197.248H99.1428C79.1834 197.248 63 181.684 63 162.484C63 143.284 79.1834 127.718 99.1428 127.718C101.096 127.718 103.009 127.866 104.876 128.153C114.896 111.898 133.318 101 154.392 101C182.896 101 206.558 120.943 211.118 147.114C224.953 147.727 235.974 158.709 235.974 172.167C235.974 185.625 224.3 197.248 209.901 197.248H200.565"
        stroke="#3E4095" stroke-opacity="0.62" stroke-width="3" stroke-miterlimit="10"
        stroke-linecap="round" />
    <path
        d="M144.366 159.291C144.366 159.27 144.366 159.247 144.366 159.225C144.366 156.393 146.659 154.097 149.487 154.097C152.316 154.097 154.608 156.393 154.608 159.225C154.608 159.247 154.608 159.27 154.608 159.291"
        fill="white" />
    <path
        d="M144.366 159.291C144.366 159.27 144.366 159.247 144.366 159.225C144.366 156.393 146.659 154.097 149.487 154.097C152.316 154.097 154.608 156.393 154.608 159.225C154.608 159.247 154.608 159.27 154.608 159.291"
        stroke="#3E4095" stroke-opacity="0.62" stroke-width="3" stroke-linecap="round"
        stroke-linejoin="bevel" />
    <path
        d="M170.376 138.958C170.376 138.987 170.376 139.018 170.376 139.049C170.376 142.916 167.244 146.052 163.382 146.052C159.519 146.052 156.388 142.916 156.388 139.049C156.388 139.018 156.388 138.987 156.388 138.958"
        fill="white" />
    <path
        d="M170.376 138.958C170.376 138.987 170.376 139.018 170.376 139.049C170.376 142.916 167.244 146.052 163.382 146.052C159.519 146.052 156.388 142.916 156.388 139.049C156.388 139.018 156.388 138.987 156.388 138.958"
        stroke="#3E4095" stroke-opacity="0.62" stroke-width="3" stroke-linecap="round"
        stroke-linejoin="bevel" />
    <path
        d="M142.58 138.958C142.58 138.987 142.58 139.018 142.58 139.049C142.58 142.916 139.449 146.052 135.586 146.052C131.724 146.052 128.593 142.916 128.593 139.049C128.593 139.018 128.593 138.987 128.593 138.958"
        fill="white" />
    <path
        d="M142.58 138.958C142.58 138.987 142.58 139.018 142.58 139.049C142.58 142.916 139.449 146.052 135.586 146.052C131.724 146.052 128.593 142.916 128.593 139.049C128.593 139.018 128.593 138.987 128.593 138.958"
        stroke="#3E4095" stroke-opacity="0.62" stroke-width="3" stroke-linecap="round"
        stroke-linejoin="bevel" />
    <circle cx="90" cy="97" r="5" fill="#8283BD" />
    <circle cx="241" cy="146" r="3" fill="#8283BD" />
    <circle cx="143" cy="92" r="3" fill="#8283BD" />
    <circle cx="195" cy="78" r="4.5" stroke="#8283BD" />
    <path d="M212.696 115.302L223.304 104.697M212.696 104.697L223.304 115.302" stroke="#8283BD"
        stroke-width="1.5" stroke-linecap="round" />
    <path d="M46.3387 116.659L61.6614 101.341M46.3387 101.341L61.6614 116.659" stroke="#8283BD"
        stroke-width="1.5" stroke-linecap="round" />
    <g clip-path="url(#clip0_2009_1916)">
        <path
            d="M163.146 215.153L176.108 210.926L177.517 215.246L164.555 219.474L163.146 215.153ZM157.51 197.871L183.433 189.416L184.842 193.737L158.919 202.191L157.51 197.871ZM160.328 206.512L186.251 198.057L187.661 202.378L161.737 210.832L160.328 206.512ZM170.191 236.756L183.153 232.529L184.562 236.849L171.601 241.077L170.191 236.756ZM217.718 221.256L216.309 216.935L211.77 218.416C211.051 217.154 210.094 216.043 208.954 215.144L211.123 210.876L207.072 208.817L204.903 213.086C203.504 212.695 202.043 212.577 200.6 212.74L199.12 208.201L194.799 209.61L196.28 214.149C195.018 214.868 193.907 215.825 193.008 216.965L188.74 214.796L186.681 218.847L190.95 221.016C190.559 222.415 190.441 223.876 190.604 225.319L186.065 226.799L187.474 231.12L192.013 229.639C192.732 230.901 193.689 232.012 194.829 232.911L192.66 237.179L196.711 239.238L198.88 234.969C200.279 235.36 201.739 235.478 203.183 235.315L204.663 239.854L208.984 238.445L207.503 233.906C208.765 233.187 209.875 232.23 210.775 231.09L215.043 233.259L217.102 229.208L212.833 227.039C213.224 225.64 213.342 224.179 213.179 222.736L217.718 221.256ZM204.005 230.508C202.723 230.926 201.346 230.955 200.048 230.59C198.75 230.226 197.589 229.485 196.713 228.46C195.836 227.436 195.283 226.175 195.123 224.836C194.963 223.497 195.203 222.141 195.814 220.939C196.425 219.737 197.378 218.744 198.554 218.084C199.73 217.423 201.075 217.127 202.419 217.231C203.763 217.335 205.046 217.836 206.106 218.67C207.166 219.503 207.954 220.632 208.372 221.914C208.931 223.633 208.785 225.503 207.966 227.114C207.147 228.726 205.723 229.946 204.005 230.508Z"
            fill="#58598F" />
        <path
            d="M187.381 245.491L170.098 251.127C168.952 251.5 167.705 251.402 166.631 250.856C165.557 250.311 164.743 249.361 164.368 248.216L147.459 196.368C147.087 195.223 147.184 193.976 147.73 192.901C148.276 191.827 149.226 191.014 150.371 190.639L184.936 179.366C186.082 178.994 187.328 179.091 188.403 179.637C189.477 180.183 190.291 181.132 190.665 182.278L197.711 203.881L193.39 205.29L186.345 183.687L151.78 194.959L168.689 246.807L185.971 241.17L187.381 245.491Z"
            fill="#58598F" />
    </g>
    <defs>
        <clipPath id="clip0_2009_1916">
            <rect width="72.7131" height="72.7131" fill="white"
                transform="translate(136 190.545) rotate(-18.0629)" />
        </clipPath>
    </defs>
</svg>
