<svg version="1.1" id="Layer_1" xmlns="http://www.w3.org/2000/svg" x="0px" y="0px" width="100%"
	viewBox="0 0 200 200" enable-background="new 0 0 200 200" xml:space="preserve">
<path fill="#05318C" opacity="1.000000" stroke="none"
	d="
M201.000000,34.000000 
	C201.000000,78.687561 201.000000,123.375122 200.649414,168.635895 
	C195.466431,185.472198 185.303940,196.258942 168.476898,200.224716 
	C168.268600,200.273819 168.156830,200.732513 168.000000,201.000000 
	C123.312439,201.000000 78.624878,201.000000 33.355362,200.652756 
	C22.628496,197.409348 13.953245,192.198502 8.133797,183.255508 
	C5.254120,178.830170 3.347094,173.771896 0.999999,169.000000 
	C1.000000,123.979103 1.000000,78.958214 1.349245,33.361176 
	C6.305787,17.075506 16.094791,6.491504 32.083511,2.006703 
	C32.453987,1.902785 32.697346,1.345705 33.000000,1.000000 
	C77.687561,1.000000 122.375122,1.000000 167.653503,1.355162 
	C180.879578,4.518507 190.355270,11.555505 196.336090,23.051912 
	C198.161377,26.560474 199.460114,30.342964 201.000000,34.000000 
M88.521370,92.505760 
	C88.521370,92.505760 88.601357,92.478027 89.335701,92.563828 
	C90.836906,91.307213 92.338104,90.050598 93.930603,88.967049 
	C93.930603,88.967049 93.809227,88.813538 94.582939,88.900444 
	C96.554718,87.765991 98.526497,86.631546 100.562935,85.406776 
	C100.562935,85.406776 100.673035,85.421463 101.543541,85.672630 
	C104.822189,85.673698 106.307632,87.102478 106.124336,90.579361 
	C105.888031,95.061913 106.172440,99.569244 106.052879,104.061111 
	C105.600204,121.068184 109.791374,119.356438 90.109474,118.765099 
	C86.632652,118.660637 86.085541,119.942978 86.099037,122.659164 
	C86.118896,126.654686 86.268715,130.659241 86.055367,134.643478 
	C85.847069,138.533508 87.412384,140.019485 91.290909,139.947601 
	C99.945168,139.787262 108.605331,139.966751 117.261093,139.854019 
	C119.883224,139.819870 122.498795,139.281525 125.622917,138.713058 
	C125.751656,136.822815 125.984421,134.933044 125.993263,133.042236 
	C126.098114,110.637886 126.182861,88.233391 126.203506,65.828865 
	C126.204384,64.881454 125.724998,63.328114 125.120171,63.131573 
	C124.273201,62.856358 123.097900,63.591560 121.166954,64.046097 
	C117.764717,63.806213 114.050079,62.566422 111.018692,63.513527 
	C101.844627,66.379791 92.478317,69.225494 84.026581,73.674339 
	C70.179062,80.963425 62.489693,93.760628 56.521477,108.423912 
	C52.686020,112.091881 54.335197,116.792244 54.082905,121.080986 
	C54.082905,121.080986 54.156712,121.061600 53.637161,121.499519 
	C53.664055,123.011009 53.690952,124.522491 53.794666,126.779037 
	C53.640018,127.498085 53.485371,128.217133 52.758190,129.368179 
	C53.017952,132.609879 53.052364,138.623962 53.572189,138.666214 
	C59.018288,139.108902 64.542122,138.595245 70.576462,138.142624 
	C70.759178,138.090942 70.941887,138.039276 71.680634,137.848434 
	C72.055244,132.737518 72.429863,127.626610 72.701706,121.995346 
	C72.813293,121.664932 72.924889,121.334518 73.601265,120.553230 
	C74.277496,117.499199 74.953728,114.445160 75.642227,111.113205 
	C75.642227,111.113205 75.856659,110.935959 76.453918,110.566231 
	C77.257729,108.621414 78.061539,106.676598 78.941681,104.341118 
	C78.941681,104.341118 79.208511,104.045731 79.861877,103.895729 
	C81.563095,101.244659 83.264313,98.593597 84.999016,95.995148 
	C84.999016,95.995148 84.942986,95.967796 85.682213,95.944458 
	C86.620705,94.825317 87.559196,93.706177 88.521370,92.505760 
M132.401199,139.120316 
	C137.578934,139.342010 142.755936,139.598251 147.936020,139.706375 
	C148.275650,139.713470 148.638916,138.587311 149.065353,137.482620 
	C149.112793,137.319016 149.160248,137.155411 149.608643,136.274200 
	C149.732239,135.456329 149.962723,134.638596 149.963837,133.820572 
	C149.993042,112.172722 150.012177,90.524818 149.973831,68.877029 
	C149.971558,67.597809 149.474426,66.319458 149.012054,64.601730 
	C149.012054,64.601730 148.884430,64.138451 148.677582,63.381016 
	C143.396225,61.363483 138.149460,60.657814 132.398376,63.968849 
	C131.994354,64.084175 131.590317,64.199501 130.781097,63.896484 
	C130.474365,63.869137 130.097626,63.722027 129.880951,63.848709 
	C129.671402,63.971222 129.522949,64.376236 129.524429,64.656235 
	C129.648621,88.185646 129.776932,111.715080 129.979477,135.243866 
	C129.987335,136.156281 130.719025,137.062485 131.593796,138.176682 
	C131.733780,138.280197 131.873764,138.383713 132.401199,139.120316 
z"/>
<path fill="#00000000" opacity="1.000000" stroke="none"
	d="
M168.468658,201.000000 
	C168.156830,200.732513 168.268600,200.273819 168.476898,200.224716 
	C185.303940,196.258942 195.466431,185.472198 200.649414,169.104553 
	C201.000000,179.594345 201.000000,190.188690 201.000000,201.000000 
	C190.313416,201.000000 179.625366,201.000000 168.468658,201.000000 
z"/>
<path fill="#00000000" opacity="1.000000" stroke="none"
	d="
M201.000000,33.531342 
	C199.460114,30.342964 198.161377,26.560474 196.336090,23.051912 
	C190.355270,11.555505 180.879578,4.518507 168.122162,1.355162 
	C178.926559,1.000000 189.853119,1.000000 201.000000,1.000000 
	C201.000000,11.686553 201.000000,22.374619 201.000000,33.531342 
z"/>
<path fill="#00000000" opacity="1.000000" stroke="none"
	d="
M32.531342,1.000000 
	C32.697346,1.345705 32.453987,1.902785 32.083511,2.006703 
	C16.094791,6.491504 6.305787,17.075506 1.349245,32.892517 
	C1.000000,22.406796 1.000000,11.813590 1.000000,1.000000 
	C11.353187,1.000000 21.707935,1.000000 32.531342,1.000000 
z"/>
<path fill="#00000000" opacity="1.000000" stroke="none"
	d="
M0.999999,169.468658 
	C3.347094,173.771896 5.254120,178.830170 8.133797,183.255508 
	C13.953245,192.198502 22.628496,197.409348 32.886703,200.652756 
	C22.406794,201.000000 11.813587,201.000000 1.000000,201.000000 
	C1.000000,190.646820 1.000000,180.292068 0.999999,169.468658 
z"/>
<path fill="#F5FBF2" opacity="1.000000" stroke="none"
	d="
M79.208511,104.045731 
	C79.208511,104.045731 78.941681,104.341118 78.587097,104.696388 
	C77.440567,107.013092 76.648613,108.974525 75.856659,110.935959 
	C75.856659,110.935959 75.642227,111.113205 75.384506,111.536087 
	C74.430008,114.974014 73.733238,117.989059 73.036476,121.004105 
	C72.924889,121.334518 72.813293,121.664932 72.509781,122.602966 
	C71.920097,128.136261 71.522346,133.061935 71.124596,137.987610 
	C70.941887,138.039276 70.759178,138.090942 69.851212,138.131744 
	C63.861267,138.120850 58.596573,138.120850 53.330723,138.120850 
	C53.330723,134.561157 53.330723,131.748672 53.330727,128.936188 
	C53.485371,128.217133 53.640018,127.498085 53.880630,126.003937 
	C54.029972,123.839752 54.093342,122.450676 54.156712,121.061600 
	C54.156712,121.061600 54.082905,121.080986 54.312111,120.786652 
	C55.416023,116.352501 56.290730,112.212685 57.165436,108.072868 
	C62.489693,93.760628 70.179062,80.963425 84.026581,73.674339 
	C92.478317,69.225494 101.844627,66.379791 111.018692,63.513527 
	C114.050079,62.566422 117.764717,63.806213 122.029770,64.064194 
	C123.601227,65.413765 124.921562,66.742493 124.927567,68.077141 
	C125.032341,91.360947 124.976028,114.645493 124.497452,138.025391 
	C111.959679,138.120926 99.879234,138.120926 87.636017,138.120926 
	C87.636017,132.029709 87.636017,126.463905 87.636017,120.447052 
	C94.131508,120.447052 100.362915,120.447052 106.852692,120.447052 
	C106.852692,107.948639 106.852692,95.902328 106.852692,83.259865 
	C104.604004,84.046440 102.638519,84.733955 100.673035,85.421463 
	C100.673035,85.421463 100.562935,85.406776 100.186302,85.505920 
	C97.809517,86.674561 95.809372,87.744049 93.809227,88.813538 
	C93.809227,88.813538 93.930603,88.967049 93.554306,88.932259 
	C91.652458,90.090988 90.126907,91.284508 88.601357,92.478027 
	C88.601357,92.478027 88.521370,92.505760 88.209518,92.642357 
	C86.912773,93.841904 85.927879,94.904854 84.942986,95.967796 
	C84.942986,95.967796 84.999016,95.995148 84.671150,96.097015 
	C82.631691,98.814507 80.920105,101.430115 79.208511,104.045731 
z"/>
<path fill="#304F87" opacity="1.000000" stroke="none" 
	d="
M101.108292,85.547043 
	C102.638519,84.733955 104.604004,84.046440 106.852692,83.259865 
	C106.852692,95.902328 106.852692,107.948639 106.852692,120.447052 
	C100.362915,120.447052 94.131508,120.447052 87.636017,120.447052 
	C87.636017,126.463905 87.636017,132.029709 87.636017,138.120926 
	C99.879234,138.120926 111.959679,138.120926 124.550247,138.284515 
	C125.079369,138.623444 125.098366,138.798798 125.117371,138.974136 
	C122.498795,139.281525 119.883224,139.819870 117.261093,139.854019 
	C108.605331,139.966751 99.945168,139.787262 91.290909,139.947601 
	C87.412384,140.019485 85.847069,138.533508 86.055367,134.643478 
	C86.268715,130.659241 86.118896,126.654686 86.099037,122.659164 
	C86.085541,119.942978 86.632652,118.660637 90.109474,118.765099 
	C109.791374,119.356438 105.600204,121.068184 106.052879,104.061111 
	C106.172440,99.569244 105.888031,95.061913 106.124336,90.579361 
	C106.307632,87.102478 104.822189,85.673698 101.108292,85.547043 
z"/>
<path fill="#AFC5E1" opacity="1.000000" stroke="none" 
	d="
M131.186295,64.314827 
	C131.590317,64.199501 131.994354,64.084175 133.162811,63.950760 
	C138.912964,64.001266 143.898697,64.069862 148.884430,64.138451 
	C148.884430,64.138451 149.012054,64.601730 149.044083,65.283524 
	C149.119980,89.640816 149.163834,113.316299 149.207703,136.991791 
	C149.160248,137.155411 149.112793,137.319016 148.703064,137.834503 
	C147.897507,138.135956 147.454239,138.085526 147.228500,137.688416 
	C147.624039,134.559067 147.802017,131.776382 148.017090,128.526871 
	C148.067673,108.598358 148.106750,89.136604 148.045670,69.675171 
	C148.040833,68.131287 147.341782,66.589584 146.503571,65.008820 
	C141.208557,65.049721 136.375320,65.128662 131.425720,64.995346 
	C131.309357,64.783073 131.186295,64.314827 131.186295,64.314827 
z"/>
<path fill="#153877" opacity="1.000000" stroke="none" 
	d="
M125.370148,138.843597 
	C125.098366,138.798798 125.079369,138.623444 125.007568,138.188995 
	C124.976028,114.645493 125.032341,91.360947 124.927567,68.077141 
	C124.921562,66.742493 123.601227,65.413765 122.477829,63.988396 
	C123.097900,63.591560 124.273201,62.856358 125.120171,63.131573 
	C125.724998,63.328114 126.204384,64.881454 126.203506,65.828865 
	C126.182861,88.233391 126.098114,110.637886 125.993263,133.042236 
	C125.984421,134.933044 125.751656,136.822815 125.370148,138.843597 
z"/>
<path fill="#153877" opacity="1.000000" stroke="none" 
	d="
M130.983704,64.105652 
	C131.186295,64.314827 131.309357,64.783073 131.334106,65.438995 
	C131.385452,89.691185 131.412064,113.287437 131.303040,137.139435 
	C131.149429,137.587296 131.131439,137.779434 131.113434,137.971573 
	C130.719025,137.062485 129.987335,136.156281 129.979477,135.243866 
	C129.776932,111.715080 129.648621,88.185646 129.524429,64.656235 
	C129.522949,64.376236 129.671402,63.971222 129.880951,63.848709 
	C130.097626,63.722027 130.474365,63.869137 130.983704,64.105652 
z"/>
<path fill="#0E316B" opacity="1.000000" stroke="none" 
	d="
M149.408173,136.632996 
	C149.163834,113.316299 149.119980,89.640816 149.141846,65.503014 
	C149.474426,66.319458 149.971558,67.597809 149.973831,68.877029 
	C150.012177,90.524818 149.993042,112.172722 149.963837,133.820572 
	C149.962723,134.638596 149.732239,135.456329 149.408173,136.632996 
z"/>
<path fill="#29477B" opacity="1.000000" stroke="none" 
	d="
M53.044456,129.152191 
	C53.330723,131.748672 53.330723,134.561157 53.330723,138.120850 
	C58.596573,138.120850 63.861267,138.120850 69.585205,138.233536 
	C64.542122,138.595245 59.018288,139.108902 53.572189,138.666214 
	C53.052364,138.623962 53.017952,132.609879 53.044456,129.152191 
z"/>
<path fill="#153877" opacity="1.000000" stroke="none" 
	d="
M147.010956,138.035110 
	C147.454239,138.085526 147.897507,138.135956 148.665985,138.087326 
	C148.638916,138.587311 148.275650,139.713470 147.936020,139.706375 
	C142.755936,139.598251 137.578934,139.342010 132.280457,138.654907 
	C132.159698,138.189484 132.018158,137.890091 132.469666,137.999069 
	C137.617783,138.083740 142.314362,138.059418 147.010956,138.035110 
z"/>
<path fill="#153877" opacity="1.000000" stroke="none" 
	d="
M148.781006,63.759735 
	C143.898697,64.069862 138.912964,64.001266 133.465607,63.863434 
	C138.149460,60.657814 143.396225,61.363483 148.781006,63.759735 
z"/>
<path fill="#29477B" opacity="1.000000" stroke="none" 
	d="
M71.402618,137.918030 
	C71.522346,133.061935 71.920097,128.136261 72.561157,122.863136 
	C72.429863,127.626610 72.055244,132.737518 71.402618,137.918030 
z"/>
<path fill="#304F87" opacity="1.000000" stroke="none" 
	d="
M79.535194,103.970734 
	C80.920105,101.430115 82.631691,98.814507 84.654404,96.070709 
	C83.264313,98.593597 81.563095,101.244659 79.535194,103.970734 
z"/>
<path fill="#29477B" opacity="1.000000" stroke="none" 
	d="
M56.843456,108.248390 
	C56.290730,112.212685 55.416023,116.352501 54.334309,120.817680 
	C54.335197,116.792244 52.686020,112.091881 56.843456,108.248390 
z"/>
<path fill="#304F87" opacity="1.000000" stroke="none" 
	d="
M73.318863,120.778671 
	C73.733238,117.989059 74.430008,114.974014 75.378365,111.675049 
	C74.953728,114.445160 74.277496,117.499199 73.318863,120.778671 
z"/>
<path fill="#304F87" opacity="1.000000" stroke="none" 
	d="
M94.196083,88.856995 
	C95.809372,87.744049 97.809517,86.674561 100.153976,85.551086 
	C98.526497,86.631546 96.554718,87.765991 94.196083,88.856995 
z"/>
<path fill="#304F87" opacity="1.000000" stroke="none" 
	d="
M88.968529,92.520920 
	C90.126907,91.284508 91.652458,90.090988 93.508667,88.845726 
	C92.338104,90.050598 90.836906,91.307213 88.968529,92.520920 
z"/>
<path fill="#304F87" opacity="1.000000" stroke="none" 
	d="
M76.155289,110.751099 
	C76.648613,108.974525 77.440567,107.013092 78.548927,104.891724 
	C78.061539,106.676598 77.257729,108.621414 76.155289,110.751099 
z"/>
<path fill="#304F87" opacity="1.000000" stroke="none" 
	d="
M85.312599,95.956131 
	C85.927879,94.904854 86.912773,93.841904 88.197678,92.682999 
	C87.559196,93.706177 86.620705,94.825317 85.312599,95.956131 
z"/>
<path fill="#29477B" opacity="1.000000" stroke="none" 
	d="
M53.896935,121.280563 
	C54.093342,122.450676 54.029972,123.839752 53.842224,125.631409 
	C53.690952,124.522491 53.664055,123.011009 53.896935,121.280563 
z"/>
<path fill="#AFC5E1" opacity="1.000000" stroke="none" 
	d="
M131.353607,138.074127 
	C131.131439,137.779434 131.149429,137.587296 131.483704,137.245361 
	C131.964584,137.335175 132.037308,137.600021 132.018158,137.890091 
	C132.018158,137.890091 132.159698,138.189484 132.086731,138.338348 
	C131.873764,138.383713 131.733780,138.280197 131.353607,138.074127 
z"/>
<path fill="#FAFEF2" opacity="1.000000" stroke="none" 
	d="
M132.469666,137.999069 
	C132.037308,137.600021 131.964584,137.335175 131.619324,136.989624 
	C131.412064,113.287437 131.385452,89.691185 131.450470,65.651268 
	C136.375320,65.128662 141.208557,65.049721 146.514389,65.472954 
	C146.991547,85.064529 146.968384,104.154022 147.043427,123.243141 
	C147.050964,125.161194 147.653564,127.076912 147.980011,128.993713 
	C147.802017,131.776382 147.624039,134.559067 147.228500,137.688416 
	C142.314362,138.059418 137.617783,138.083740 132.469666,137.999069 
z"/>
<path fill="#F9FDFE" opacity="1.000000" stroke="none" 
	d="
M148.017090,128.526871 
	C147.653564,127.076912 147.050964,125.161194 147.043427,123.243141 
	C146.968384,104.154022 146.991547,85.064529 146.976166,65.511002 
	C147.341782,66.589584 148.040833,68.131287 148.045670,69.675171 
	C148.106750,89.136604 148.067673,108.598358 148.017090,128.526871 
z"/>
</svg>